<svg width="512" height="512" viewBox="0 0 512 512" fill="none" xmlns="http://www.w3.org/2000/svg">
<rect width="512" height="512" fill="#E5E5E5"/>
<rect width="512" height="512" fill="#171717"/>
<path d="M307.112 156.485C306.847 156.748 306.633 157.01 306.633 157.061C306.633 157.111 306.959 157.485 307.356 157.879L308.08 158.596L307.407 159.415C304.737 162.708 303.463 167.225 304.034 171.478C304.91 178.025 309.598 183.349 315.998 185.036C316.527 185.178 317.312 185.339 317.75 185.41L318.555 185.521V186.36V187.198L316.854 187.239C315.182 187.269 315.131 187.279 314.459 187.592C314.082 187.764 313.572 188.098 313.317 188.34C312.675 188.916 312.156 189.987 312.064 190.876C312.013 191.502 312.023 191.563 312.268 191.805C312.533 192.068 312.543 192.068 314.153 192.068H315.784L315.57 192.694C315.274 193.594 315.274 195.392 315.57 196.291L315.784 196.918L310.974 196.897L306.174 196.867L305.95 196.392C305.817 196.129 305.665 195.594 305.593 195.21C305.451 194.351 305.583 193.341 305.95 192.593L306.174 192.119L308.294 192.088L310.403 192.068V191.26V190.452H305.522C299.846 190.452 300.376 190.34 299.703 191.694C298.766 193.573 298.766 195.412 299.703 197.291C300.284 198.463 300.406 198.534 301.69 198.534H302.74L302.536 199.16C302.251 200.07 302.2 201.252 302.393 202.171C302.577 203.07 303.27 204.495 303.647 204.788L303.912 205H323.212H342.513L342.757 204.747C343.094 204.424 343.084 204.06 342.707 203.474C341.698 201.929 341.698 199.989 342.707 198.443C343.084 197.857 343.094 197.493 342.757 197.17C342.513 196.928 342.472 196.918 340.923 196.918H339.334L339.089 196.362C338.437 194.907 338.59 193.21 339.497 191.896C339.823 191.411 339.823 191.017 339.497 190.704L339.252 190.452H334.554C330.662 190.452 329.867 190.431 329.867 190.31C329.867 190.239 329.704 189.855 329.51 189.472C329.072 188.603 328.46 188.017 327.543 187.592C326.871 187.279 326.82 187.269 325.149 187.239L323.437 187.198L323.467 186.228L323.498 185.259L324.058 185.127C326.422 184.551 328.705 183.42 330.468 181.975L331.11 181.44L331.864 182.177L332.618 182.925L333.199 182.339L333.79 181.763L333.036 181.015L332.292 180.268L332.863 179.581C333.179 179.207 333.433 178.863 333.433 178.833C333.433 178.762 332.272 177.924 332.18 177.924C332.149 177.924 331.905 178.196 331.64 178.53L331.14 179.136L330.57 178.57L329.989 178.005L330.631 177.136C333.505 173.286 334.014 168.225 331.966 163.921C330.763 161.405 328.532 159.122 326.045 157.899C321.48 155.626 315.936 156.222 311.972 159.395L311.565 159.728L310.984 159.152L310.403 158.576L311.014 158.081C311.351 157.819 311.626 157.576 311.626 157.546C311.626 157.455 310.78 156.303 310.709 156.303C310.678 156.303 310.332 156.556 309.955 156.869L309.262 157.435L308.528 156.717C308.131 156.323 307.754 156 307.692 156C307.641 156 307.376 156.222 307.112 156.485ZM321.918 158.263C322.458 158.344 323.019 158.465 323.172 158.516L323.447 158.627V160.91V163.193L324.67 165.214L325.892 167.225V168.841C325.892 169.73 325.933 170.538 325.984 170.639C326.045 170.73 326.718 171.235 327.492 171.741L328.909 172.67H330.009H331.11L331.039 172.943C330.926 173.428 330.101 175.075 329.622 175.782C327.604 178.793 323.905 180.753 320.237 180.753C314.622 180.753 309.822 176.721 308.925 171.246C308.773 170.266 308.732 168.861 308.834 168.194L308.905 167.821H309.741H310.586L310.923 169.205C311.392 171.104 311.341 171.054 313.103 171.054H314.479V172.387V173.731L315.294 174.943L316.11 176.156V177.398C316.11 178.58 316.12 178.651 316.364 178.884C316.609 179.136 316.629 179.136 318.535 179.136C319.911 179.136 320.502 179.096 320.624 179.005C320.706 178.944 321.572 177.914 322.519 176.721C324.415 174.378 324.496 174.206 324.007 173.731C323.783 173.499 323.681 173.478 322.784 173.478H321.816V171.71C321.816 169.962 321.816 169.932 321.561 169.69L321.317 169.437H318.708H316.11V168.76C316.11 168.104 316.13 168.063 316.731 167.144L317.363 166.204H318.932C320.461 166.204 320.512 166.194 320.746 165.952C320.889 165.82 321.001 165.588 321.001 165.446C321.001 165.093 319.218 161.587 318.973 161.456C318.861 161.405 318.178 161.355 317.445 161.355H316.11V160.102V158.859L316.803 158.647C317.404 158.465 318.066 158.324 318.963 158.182C319.585 158.091 321.032 158.132 321.918 158.263ZM326.993 160.365C330.111 162.628 332.037 166.972 331.538 170.589L331.467 171.054H330.448H329.418L328.471 170.437L327.523 169.811V168.306V166.79L326.3 164.769L325.077 162.759V160.981V159.213L325.75 159.576C326.117 159.779 326.677 160.132 326.993 160.365ZM314.775 162.779C314.979 162.951 315.193 162.971 316.527 162.971H318.046L318.453 163.779L318.861 164.588H317.781C317.19 164.588 316.629 164.628 316.527 164.679C316.436 164.739 315.926 165.406 315.417 166.174L314.479 167.578V168.508V169.437H313.572H312.665L312.329 168.043C311.87 166.194 311.881 166.204 310.393 166.204H309.262L309.333 165.921C309.455 165.436 310.271 163.8 310.78 163.052C311.402 162.122 312.798 160.728 313.715 160.122L314.428 159.647L314.479 161.122C314.53 162.506 314.54 162.597 314.775 162.779ZM310.057 161.294C307.285 164.699 306.429 169.336 307.815 173.468C309.139 177.419 312.135 180.389 316.12 181.702C320.278 183.076 324.975 182.228 328.399 179.48L328.807 179.146L329.388 179.722L329.969 180.308L329.265 180.854C324.873 184.268 318.953 184.915 313.878 182.561C310.984 181.217 308.304 178.55 306.938 175.681C305.97 173.63 305.563 171.781 305.563 169.437C305.563 165.992 306.633 162.931 308.762 160.324L309.231 159.738L309.812 160.314L310.393 160.89L310.057 161.294ZM320.186 172.812C320.186 174.923 320.216 175.004 321.144 175.095L321.714 175.145L320.767 176.327L319.829 177.509L318.79 177.52H317.74V176.58V175.651L316.925 174.438L316.11 173.226V172.135V171.054H318.148H320.186V172.812ZM321.816 186.36V187.219H321.001H320.186V186.41V185.612L320.777 185.572C321.093 185.552 321.46 185.531 321.592 185.521C321.806 185.501 321.816 185.531 321.816 186.36ZM326.646 188.956C327.105 189.088 328.134 190.017 328.134 190.29C328.134 190.431 327.411 190.452 321.001 190.452C314.591 190.452 313.868 190.431 313.868 190.29C313.868 190.047 314.897 189.088 315.294 188.966C315.824 188.805 326.086 188.795 326.646 188.956ZM304.156 192.694C303.861 193.594 303.861 195.392 304.156 196.281L304.37 196.918H302.852C301.395 196.918 301.334 196.907 301.191 196.685C300.498 195.614 300.498 193.371 301.191 192.29C301.334 192.078 301.395 192.068 302.852 192.068H304.37L304.156 192.694ZM321.276 192.694C321.113 193.189 321.072 193.594 321.072 194.493C321.072 195.392 321.113 195.796 321.276 196.281L321.49 196.918H319.564C317.383 196.918 317.536 196.978 317.169 195.958C316.803 194.947 316.966 193.119 317.496 192.29C317.638 192.068 317.679 192.068 319.564 192.068H321.49L321.276 192.694ZM337.458 192.24C337.418 192.341 337.316 192.705 337.234 193.048L337.071 193.685H329.907C325.363 193.685 322.733 193.644 322.733 193.584C322.733 193.412 323.059 192.523 323.202 192.29L323.345 192.068H330.437C337.153 192.068 337.53 192.078 337.458 192.24ZM337.234 195.927C337.316 196.281 337.418 196.645 337.458 196.746C337.53 196.907 337.173 196.918 330.417 196.897L323.294 196.867L323.08 196.412C322.958 196.16 322.825 195.806 322.784 195.624L322.713 195.301H329.897H337.071L337.234 195.927ZM307.417 199.16C307.122 200.06 307.122 201.858 307.417 202.747L307.631 203.384H306.113C304.391 203.384 304.482 203.424 304.126 202.424C303.759 201.413 303.922 199.585 304.452 198.756C304.595 198.544 304.656 198.534 306.113 198.534H307.631L307.417 199.16ZM318.83 199.16C318.535 200.06 318.535 201.858 318.83 202.747L319.044 203.384H314.265H309.486L309.343 203.151C308.997 202.616 308.834 201.919 308.834 200.959C308.834 199.999 308.997 199.302 309.343 198.756L309.486 198.534H314.265H319.044L318.83 199.16ZM324.537 199.16C324.374 199.655 324.333 200.06 324.333 200.959C324.333 201.858 324.374 202.262 324.537 202.747L324.751 203.384H322.825C320.644 203.384 320.797 203.444 320.43 202.424C320.064 201.413 320.227 199.585 320.756 198.756C320.899 198.534 320.94 198.534 322.825 198.534H324.751L324.537 199.16ZM340.719 198.706C340.679 198.807 340.577 199.171 340.495 199.514L340.332 200.151H333.168C328.623 200.151 325.994 200.11 325.994 200.049C325.994 199.878 326.32 198.989 326.463 198.756L326.606 198.534H333.698C340.414 198.534 340.791 198.544 340.719 198.706ZM340.495 202.393C340.577 202.747 340.679 203.111 340.719 203.212C340.791 203.373 340.434 203.384 333.678 203.363L326.555 203.333L326.341 202.878C326.219 202.626 326.086 202.272 326.045 202.09L325.974 201.767H333.158H340.332L340.495 202.393Z" fill="#414141"/>
<path d="M220.112 401.485C219.847 401.748 219.633 402.01 219.633 402.061C219.633 402.111 219.959 402.485 220.356 402.879L221.08 403.596L220.407 404.415C217.737 407.708 216.463 412.225 217.034 416.478C217.91 423.025 222.598 428.349 228.998 430.036C229.527 430.178 230.312 430.339 230.75 430.41L231.555 430.521V431.36V432.198L229.854 432.239C228.182 432.269 228.131 432.279 227.459 432.592C227.082 432.764 226.572 433.098 226.317 433.34C225.675 433.916 225.156 434.987 225.064 435.876C225.013 436.502 225.023 436.563 225.268 436.805C225.533 437.068 225.543 437.068 227.153 437.068H228.784L228.57 437.694C228.274 438.594 228.274 440.392 228.57 441.291L228.784 441.918L223.974 441.897L219.174 441.867L218.95 441.392C218.817 441.129 218.665 440.594 218.593 440.21C218.451 439.351 218.583 438.341 218.95 437.593L219.174 437.119L221.294 437.088L223.403 437.068V436.26V435.452H218.522C212.846 435.452 213.376 435.34 212.703 436.694C211.766 438.573 211.766 440.412 212.703 442.291C213.284 443.463 213.406 443.534 214.69 443.534H215.74L215.536 444.16C215.251 445.07 215.2 446.252 215.393 447.171C215.577 448.07 216.27 449.495 216.647 449.788L216.912 450H236.212H255.513L255.757 449.747C256.094 449.424 256.084 449.06 255.707 448.474C254.698 446.929 254.698 444.989 255.707 443.443C256.084 442.857 256.094 442.493 255.757 442.17C255.513 441.928 255.472 441.918 253.923 441.918H252.334L252.089 441.362C251.437 439.907 251.59 438.21 252.497 436.896C252.823 436.411 252.823 436.017 252.497 435.704L252.252 435.452H247.554C243.662 435.452 242.867 435.431 242.867 435.31C242.867 435.239 242.704 434.855 242.51 434.472C242.072 433.603 241.46 433.017 240.543 432.592C239.871 432.279 239.82 432.269 238.149 432.239L236.437 432.198L236.467 431.228L236.498 430.259L237.058 430.127C239.422 429.551 241.705 428.42 243.468 426.975L244.11 426.44L244.864 427.177L245.618 427.925L246.199 427.339L246.79 426.763L246.036 426.015L245.292 425.268L245.863 424.581C246.179 424.207 246.433 423.863 246.433 423.833C246.433 423.762 245.272 422.924 245.18 422.924C245.149 422.924 244.905 423.196 244.64 423.53L244.14 424.136L243.57 423.57L242.989 423.005L243.631 422.136C246.505 418.286 247.014 413.225 244.966 408.921C243.763 406.405 241.532 404.122 239.045 402.899C234.48 400.626 228.936 401.222 224.972 404.395L224.565 404.728L223.984 404.152L223.403 403.576L224.014 403.081C224.351 402.819 224.626 402.576 224.626 402.546C224.626 402.455 223.78 401.303 223.709 401.303C223.678 401.303 223.332 401.556 222.955 401.869L222.262 402.435L221.528 401.717C221.131 401.323 220.754 401 220.692 401C220.641 401 220.376 401.222 220.112 401.485ZM234.918 403.263C235.458 403.344 236.019 403.465 236.172 403.516L236.447 403.627V405.91V408.193L237.67 410.214L238.892 412.225V413.841C238.892 414.73 238.933 415.538 238.984 415.639C239.045 415.73 239.718 416.235 240.492 416.741L241.909 417.67H243.009H244.11L244.039 417.943C243.926 418.428 243.101 420.075 242.622 420.782C240.604 423.793 236.905 425.753 233.237 425.753C227.622 425.753 222.822 421.721 221.925 416.246C221.773 415.266 221.732 413.861 221.834 413.194L221.905 412.821H222.741H223.586L223.923 414.205C224.392 416.104 224.341 416.054 226.103 416.054H227.479V417.387V418.731L228.294 419.943L229.11 421.156V422.398C229.11 423.58 229.12 423.651 229.364 423.884C229.609 424.136 229.629 424.136 231.535 424.136C232.911 424.136 233.502 424.096 233.624 424.005C233.706 423.944 234.572 422.914 235.519 421.721C237.415 419.378 237.496 419.206 237.007 418.731C236.783 418.499 236.681 418.478 235.784 418.478H234.816V416.71C234.816 414.962 234.816 414.932 234.561 414.69L234.317 414.437H231.708H229.11V413.76C229.11 413.104 229.13 413.063 229.731 412.144L230.363 411.204H231.932C233.461 411.204 233.512 411.194 233.746 410.952C233.889 410.82 234.001 410.588 234.001 410.446C234.001 410.093 232.218 406.587 231.973 406.456C231.861 406.405 231.178 406.355 230.445 406.355H229.11V405.102V403.859L229.803 403.647C230.404 403.465 231.066 403.324 231.963 403.182C232.585 403.091 234.032 403.132 234.918 403.263ZM239.993 405.365C243.111 407.628 245.037 411.972 244.538 415.589L244.467 416.054H243.448H242.418L241.471 415.437L240.523 414.811V413.306V411.79L239.3 409.769L238.077 407.759V405.981V404.213L238.75 404.576C239.117 404.779 239.677 405.132 239.993 405.365ZM227.775 407.779C227.979 407.951 228.193 407.971 229.527 407.971H231.046L231.453 408.779L231.861 409.588H230.781C230.19 409.588 229.629 409.628 229.527 409.679C229.436 409.739 228.926 410.406 228.417 411.174L227.479 412.578V413.508V414.437H226.572H225.665L225.329 413.043C224.87 411.194 224.881 411.204 223.393 411.204H222.262L222.333 410.921C222.455 410.436 223.271 408.8 223.78 408.052C224.402 407.122 225.798 405.728 226.715 405.122L227.428 404.647L227.479 406.122C227.53 407.506 227.54 407.597 227.775 407.779ZM223.057 406.294C220.285 409.699 219.429 414.336 220.815 418.468C222.139 422.419 225.135 425.389 229.12 426.702C233.278 428.076 237.975 427.228 241.399 424.48L241.807 424.146L242.388 424.722L242.969 425.308L242.265 425.854C237.873 429.268 231.953 429.915 226.878 427.561C223.984 426.217 221.304 423.55 219.938 420.681C218.97 418.63 218.563 416.781 218.563 414.437C218.563 410.992 219.633 407.931 221.762 405.324L222.231 404.738L222.812 405.314L223.393 405.89L223.057 406.294ZM233.186 417.812C233.186 419.923 233.216 420.004 234.144 420.095L234.714 420.145L233.767 421.327L232.829 422.509L231.79 422.52H230.74V421.58V420.651L229.925 419.438L229.11 418.226V417.135V416.054H231.148H233.186V417.812ZM234.816 431.36V432.219H234.001H233.186V431.41V430.612L233.777 430.572C234.093 430.552 234.46 430.531 234.592 430.521C234.806 430.501 234.816 430.531 234.816 431.36ZM239.646 433.956C240.105 434.088 241.134 435.017 241.134 435.29C241.134 435.431 240.411 435.452 234.001 435.452C227.591 435.452 226.868 435.431 226.868 435.29C226.868 435.047 227.897 434.088 228.294 433.966C228.824 433.805 239.086 433.795 239.646 433.956ZM217.156 437.694C216.861 438.594 216.861 440.392 217.156 441.281L217.37 441.918H215.852C214.395 441.918 214.334 441.907 214.191 441.685C213.498 440.614 213.498 438.371 214.191 437.29C214.334 437.078 214.395 437.068 215.852 437.068H217.37L217.156 437.694ZM234.276 437.694C234.113 438.189 234.072 438.594 234.072 439.493C234.072 440.392 234.113 440.796 234.276 441.281L234.49 441.918H232.564C230.383 441.918 230.536 441.978 230.169 440.958C229.803 439.947 229.966 438.119 230.496 437.29C230.638 437.068 230.679 437.068 232.564 437.068H234.49L234.276 437.694ZM250.458 437.24C250.418 437.341 250.316 437.705 250.234 438.048L250.071 438.685H242.907C238.363 438.685 235.733 438.644 235.733 438.584C235.733 438.412 236.059 437.523 236.202 437.29L236.345 437.068H243.437C250.153 437.068 250.53 437.078 250.458 437.24ZM250.234 440.927C250.316 441.281 250.418 441.645 250.458 441.746C250.53 441.907 250.173 441.918 243.417 441.897L236.294 441.867L236.08 441.412C235.958 441.16 235.825 440.806 235.784 440.624L235.713 440.301H242.897H250.071L250.234 440.927ZM220.417 444.16C220.122 445.06 220.122 446.858 220.417 447.747L220.631 448.384H219.113C217.391 448.384 217.482 448.424 217.126 447.424C216.759 446.413 216.922 444.585 217.452 443.756C217.595 443.544 217.656 443.534 219.113 443.534H220.631L220.417 444.16ZM231.83 444.16C231.535 445.06 231.535 446.858 231.83 447.747L232.044 448.384H227.265H222.486L222.343 448.151C221.997 447.616 221.834 446.919 221.834 445.959C221.834 444.999 221.997 444.302 222.343 443.756L222.486 443.534H227.265H232.044L231.83 444.16ZM237.537 444.16C237.374 444.655 237.333 445.06 237.333 445.959C237.333 446.858 237.374 447.262 237.537 447.747L237.751 448.384H235.825C233.644 448.384 233.797 448.444 233.43 447.424C233.064 446.413 233.227 444.585 233.756 443.756C233.899 443.534 233.94 443.534 235.825 443.534H237.751L237.537 444.16ZM253.719 443.706C253.679 443.807 253.577 444.171 253.495 444.514L253.332 445.151H246.168C241.623 445.151 238.994 445.11 238.994 445.049C238.994 444.878 239.32 443.989 239.463 443.756L239.606 443.534H246.698C253.414 443.534 253.791 443.544 253.719 443.706ZM253.495 447.393C253.577 447.747 253.679 448.111 253.719 448.212C253.791 448.373 253.434 448.384 246.678 448.363L239.555 448.333L239.341 447.878C239.219 447.626 239.086 447.272 239.045 447.09L238.974 446.767H246.158H253.332L253.495 447.393Z" fill="#414141"/>
<path d="M390.465 10.2589C389.072 10.9249 386.988 13.774 386.088 16.2407C385.102 18.9541 384.904 21.8032 385.435 26.12C385.508 26.7243 385.496 26.7736 385.274 26.6996C384.67 26.5146 381.933 26.12 380.317 25.9843C375.138 25.5649 370.921 26.9093 367.604 30.0174C365.225 32.2621 363.782 34.8645 363.141 38.0589C362.882 39.3539 362.882 39.3539 363.116 39.6746C363.498 40.1803 363.942 40.2913 364.362 39.9829C364.645 39.7733 364.731 39.5636 364.916 38.6386C365.348 36.4308 366.088 34.7288 367.333 33.0761C370.169 29.3144 374.349 27.5137 379.614 27.785C381.23 27.8713 385.274 28.488 385.693 28.71C385.866 28.7963 385.989 29.1294 386.137 29.857C386.384 31.1521 386.396 31.1151 386.002 31.0287C381.082 29.9804 378.788 29.7584 376.347 30.1407C373.696 30.5354 371.797 31.5221 369.997 33.4214C367.999 35.5305 367.099 37.6889 366.902 40.8956C366.766 43.1033 367.111 45.5824 368.394 51.2065C369.368 55.5603 369.651 57.1266 369.836 59.4084C370.169 63.4045 369.306 66.7715 367.247 69.4849C366.273 70.78 365.878 71.15 365.36 71.224C364.731 71.335 364.14 70.817 364.14 70.1756C364.14 69.7933 364.251 69.5836 364.83 68.9176C366.162 67.3759 366.988 65.7848 367.432 63.8238C367.58 63.1824 367.641 62.3808 367.629 60.7897C367.629 58.249 367.419 56.9046 366.236 51.7122C365.36 47.8764 364.916 45.5084 364.805 44.09C364.67 42.277 364.485 41.9193 363.671 41.9193C363.067 41.9193 362.845 42.3016 362.882 43.2637C362.919 44.2257 363.227 46.5814 363.461 47.7161C363.548 48.1601 363.609 48.5301 363.585 48.5548C363.56 48.5795 363.017 48.5301 362.389 48.4438C361.76 48.3575 360.218 48.2834 358.961 48.2834C357.086 48.2834 356.445 48.3451 355.409 48.5671C352.549 49.1715 350.292 50.3308 348.221 52.2425C347.21 53.1922 347 53.6239 347 54.8449C347 55.7453 347.037 55.881 347.407 56.4236C347.937 57.2253 348.85 57.7063 349.824 57.7063C350.662 57.7063 351.353 57.4103 352.08 56.7443C352.376 56.4853 352.882 56.0536 353.215 55.8069L353.819 55.3506L359.22 60.7404L364.62 66.1302L364.226 66.6975C364.016 67.0059 363.609 67.5239 363.313 67.8322C363.03 68.1406 362.685 68.6339 362.549 68.9422C361.957 70.2249 362.401 71.816 363.572 72.593C364.115 72.963 364.251 73 365.151 73C366.384 73 366.815 72.7903 367.839 71.6803C371.106 68.1159 372.29 63.5895 371.513 57.546C371.439 56.954 371.402 56.4483 371.427 56.4236C371.452 56.399 372.228 56.51 373.141 56.6703C380.848 57.99 385.965 56.6703 390.021 52.3289C393.079 49.0605 394.399 44.8794 394.004 39.7486C393.881 38.1329 393.486 35.3825 393.277 34.7165C393.215 34.4945 393.264 34.4821 393.869 34.5685C395.521 34.7658 397.679 34.9138 398.283 34.8645C399.048 34.7905 399.405 34.4821 399.405 33.8901C399.405 33.2734 399.035 33.0391 398.049 33.0391C397.149 33.0391 393.992 32.7308 393.24 32.5704C392.821 32.4718 392.808 32.4718 392.549 31.3371C392.401 30.7081 392.327 30.2024 392.389 30.2024C392.451 30.2024 393.203 30.3257 394.066 30.4737C396.1 30.8191 399.38 30.8437 400.712 30.5354C402.697 30.079 404.263 29.2897 405.743 27.9947C406.458 27.3656 406.68 27.2423 407.062 27.2423C407.704 27.2423 408.221 27.8343 408.111 28.4633C407.95 29.4994 405.065 31.5221 402.636 32.2991C401.39 32.7061 401.057 33.0144 401.193 33.6435C401.242 33.9025 401.403 34.0998 401.649 34.2231C401.995 34.4081 402.093 34.3958 402.784 34.2108C405.607 33.4214 409.072 31.0534 409.763 29.4377C410.552 27.6123 409.282 25.5649 407.284 25.4169C406.323 25.3429 405.607 25.6266 404.769 26.379C404.424 26.6873 403.881 27.1313 403.585 27.341L403.018 27.7233L397.629 22.3212L392.241 16.9191L392.697 16.3147C392.944 15.9817 393.388 15.4637 393.671 15.1554C395.496 13.1697 394.448 10.1973 391.859 10.0123C391.218 9.97526 390.971 10.0123 390.465 10.2589ZM392.364 12.146C392.673 12.3926 392.747 12.5653 392.747 12.923C392.747 13.3053 392.636 13.515 392.105 14.1194C389.849 16.6971 388.973 19.6571 389.294 23.6039C389.467 25.7129 389.738 27.267 390.7 31.5961C391.76 36.3075 392.118 38.5029 392.216 40.6859C392.377 44.5834 391.452 47.6421 389.343 50.2938C386.347 54.0432 382.093 55.7083 376.655 55.2643C374.917 55.1163 371.735 54.6106 371.217 54.3886C371.008 54.3022 370.921 54.0556 370.749 53.2046C370.625 52.6125 370.564 52.1069 370.588 52.0822C370.625 52.0452 371.439 52.1809 372.413 52.3905C375.175 52.9456 376.261 53.0812 378.32 53.0812C380.453 53.0812 381.501 52.9086 383.092 52.2795C385.41 51.3915 387.629 49.3441 388.764 47.0378C389.639 45.2864 389.948 43.757 389.935 41.3026C389.935 38.9716 389.652 37.1585 388.566 32.2251C387.555 27.6617 387.272 26.0583 387.074 23.8506C386.692 19.7558 387.543 16.3764 389.652 13.5767C390.996 11.8006 391.587 11.4923 392.364 12.146ZM396.384 23.6656C399.023 26.305 401.156 28.488 401.131 28.5127C401.008 28.6237 399.713 28.8457 398.752 28.9197C397.568 29.0184 395.385 28.821 393.301 28.4387L391.822 28.1673L391.55 26.749C391.193 24.8126 390.971 22.3459 391.07 21.2112C391.156 20.1135 391.39 18.8555 391.501 18.8555C391.538 18.8555 393.733 21.0138 396.384 23.6656ZM382.574 32.2374C383.523 32.3978 384.88 32.6691 385.582 32.8294L386.877 33.1131L387.161 34.4081C387.753 36.9735 388.394 41.5493 388.172 41.5493C388.147 41.5493 385.928 39.3539 383.252 36.6652L378.381 31.7811L379.614 31.8674C380.293 31.9044 381.624 32.0771 382.574 32.2374ZM381.994 38.0096L387.95 43.9667L387.642 44.9534C387.333 45.9031 386.668 47.1858 386.236 47.6174C386.039 47.8271 385.656 47.4694 379.072 40.8833L372.117 33.9271L372.66 33.5325C373.486 32.9281 375.064 32.2251 375.977 32.0648C376.014 32.0524 378.714 34.7288 381.994 38.0096ZM384.51 49.3441C384.078 49.7758 382.796 50.4418 381.834 50.7502L380.86 51.0585L374.904 45.1014L368.948 39.1442L369.121 38.4906C369.343 37.6519 369.923 36.4555 370.428 35.7648L370.823 35.2222L377.777 42.1783C384.362 48.7645 384.719 49.1468 384.51 49.3441ZM373.634 46.4334L378.505 51.3175L377.333 51.2435C376.692 51.1942 375.632 51.0832 374.99 50.9845C373.597 50.7625 370.268 50.0718 370.095 49.9485C369.96 49.8621 369.281 46.7787 369.01 45.0027C368.825 43.7693 368.628 41.5493 368.714 41.5493C368.739 41.5493 370.958 43.7447 373.634 46.4334ZM362.66 50.3678C363.363 50.4665 363.979 50.5898 364.029 50.6515C364.201 50.8365 364.596 52.8962 364.46 52.8962C364.386 52.8962 363.659 52.7852 362.845 52.6495C357.654 51.7862 354.028 52.5509 351.143 55.1039C350.428 55.7453 350.218 55.8563 349.824 55.8563C349.466 55.8563 349.293 55.7823 349.047 55.4739C348.393 54.6969 348.702 54.1049 350.477 52.7729C352.29 51.4039 354.633 50.4912 357.049 50.1952C358.283 50.0472 360.958 50.1335 362.66 50.3678ZM361.365 54.3269C362.253 54.4256 363.437 54.6106 364.016 54.7216L365.064 54.9436L365.336 56.3496C365.706 58.3723 365.915 60.6417 365.817 61.8381C365.743 62.8248 365.521 64.1198 365.41 64.2431C365.36 64.3048 355.755 54.7339 355.755 54.5983C355.755 54.5613 356.162 54.4626 356.655 54.3763C357.136 54.3023 357.629 54.2159 357.728 54.1912C358.246 54.0926 359.935 54.1542 361.365 54.3269Z" fill="#414141"/>
<path d="M68.4654 205.259C67.072 205.925 64.9882 208.774 64.088 211.241C63.1016 213.954 62.9043 216.803 63.4345 221.12C63.5085 221.724 63.4962 221.774 63.2742 221.7C62.67 221.515 59.9326 221.12 58.3173 220.984C53.1385 220.565 48.9214 221.909 45.6045 225.017C43.2246 227.262 41.782 229.864 41.1408 233.059C40.8818 234.354 40.8818 234.354 41.1161 234.675C41.4984 235.18 41.9423 235.291 42.3615 234.983C42.6451 234.773 42.7314 234.564 42.9164 233.639C43.3479 231.431 44.0878 229.729 45.3332 228.076C48.1692 224.314 52.3493 222.514 57.6145 222.785C59.2298 222.871 63.2742 223.488 63.6935 223.71C63.8661 223.796 63.9894 224.129 64.1374 224.857C64.384 226.152 64.3963 226.115 64.0017 226.029C59.0818 224.98 56.7883 224.758 54.3469 225.141C51.6958 225.535 49.7969 226.522 47.9966 228.421C45.999 230.53 45.0989 232.689 44.9016 235.896C44.766 238.103 45.1112 240.582 46.3936 246.207C47.3677 250.56 47.6513 252.127 47.8363 254.408C48.1692 258.404 47.3061 261.772 45.2469 264.485C44.2727 265.78 43.8782 266.15 43.3603 266.224C42.7314 266.335 42.1395 265.817 42.1395 265.176C42.1395 264.793 42.2505 264.584 42.8301 263.918C44.1618 262.376 44.9879 260.785 45.4318 258.824C45.5798 258.182 45.6414 257.381 45.6291 255.79C45.6291 253.249 45.4195 251.905 44.2358 246.712C43.3603 242.876 42.9164 240.508 42.8054 239.09C42.6698 237.277 42.4848 236.919 41.671 236.919C41.0668 236.919 40.8448 237.302 40.8818 238.264C40.9188 239.226 41.2271 241.581 41.4614 242.716C41.5477 243.16 41.6093 243.53 41.5847 243.555C41.56 243.579 41.0175 243.53 40.3886 243.444C39.7597 243.357 38.2184 243.283 36.9607 243.283C35.0864 243.283 34.4452 243.345 33.4095 243.567C30.5488 244.171 28.2923 245.331 26.2207 247.243C25.2096 248.192 25 248.624 25 249.845C25 250.745 25.037 250.881 25.4069 251.424C25.9371 252.225 26.8496 252.706 27.8237 252.706C28.6622 252.706 29.3527 252.41 30.0802 251.744C30.3761 251.485 30.8817 251.054 31.2146 250.807L31.8188 250.351L37.2196 255.74L42.6204 261.13L42.2259 261.698C42.0162 262.006 41.6093 262.524 41.3134 262.832C41.0298 263.141 40.6845 263.634 40.5489 263.942C39.957 265.225 40.4009 266.816 41.5723 267.593C42.1149 267.963 42.2505 268 43.1507 268C44.3837 268 44.8153 267.79 45.8387 266.68C49.1063 263.116 50.2901 258.589 49.5133 252.546C49.4393 251.954 49.4023 251.448 49.4269 251.424C49.4516 251.399 50.2284 251.51 51.1409 251.67C58.8475 252.99 63.9647 251.67 68.0215 247.329C71.0795 244.06 72.3989 239.879 72.0043 234.749C71.881 233.133 71.4864 230.382 71.2768 229.716C71.2151 229.494 71.2645 229.482 71.8687 229.568C73.521 229.766 75.6788 229.914 76.283 229.864C77.0475 229.79 77.4051 229.482 77.4051 228.89C77.4051 228.273 77.0352 228.039 76.0487 228.039C75.1486 228.039 71.992 227.731 71.2398 227.57C70.8206 227.472 70.8082 227.472 70.5493 226.337C70.4013 225.708 70.3273 225.202 70.389 225.202C70.4506 225.202 71.2028 225.326 72.0659 225.474C74.1005 225.819 77.3804 225.844 78.7121 225.535C80.6974 225.079 82.2634 224.29 83.743 222.995C84.4582 222.366 84.6802 222.242 85.0624 222.242C85.7036 222.242 86.2215 222.834 86.1105 223.463C85.9502 224.499 83.0648 226.522 80.6357 227.299C79.3903 227.706 79.0574 228.014 79.193 228.643C79.2424 228.902 79.4027 229.1 79.6493 229.223C79.9945 229.408 80.0932 229.396 80.7837 229.211C83.6074 228.421 87.0723 226.053 87.7628 224.438C88.552 222.612 87.2819 220.565 85.2844 220.417C84.3226 220.343 83.6074 220.627 82.7689 221.379C82.4237 221.687 81.8811 222.131 81.5852 222.341L81.018 222.723L75.6295 217.321L70.241 211.919L70.6972 211.315C70.9439 210.982 71.3878 210.464 71.6714 210.155C73.4963 208.17 72.4482 205.197 69.8588 205.012C69.2176 204.975 68.971 205.012 68.4654 205.259ZM70.3643 207.146C70.6726 207.393 70.7466 207.565 70.7466 207.923C70.7466 208.305 70.6356 208.515 70.1054 209.119C67.8489 211.697 66.9734 214.657 67.294 218.604C67.4666 220.713 67.7379 222.267 68.6997 226.596C69.7601 231.308 70.1177 233.503 70.2164 235.686C70.3767 239.583 69.4519 242.642 67.3433 245.294C64.347 249.043 60.0929 250.708 54.6551 250.264C52.9165 250.116 49.7352 249.611 49.2173 249.389C49.0077 249.302 48.9214 249.056 48.7488 248.205C48.6255 247.613 48.5638 247.107 48.5885 247.082C48.6255 247.045 49.4393 247.181 50.4134 247.391C53.1754 247.946 54.2605 248.081 56.3198 248.081C58.4529 248.081 59.5011 247.909 61.0917 247.28C63.4099 246.392 65.6294 244.344 66.7638 242.038C67.6393 240.286 67.9475 238.757 67.9352 236.303C67.9352 233.972 67.6516 232.159 66.5665 227.225C65.5554 222.662 65.2718 221.058 65.0745 218.851C64.6922 214.756 65.543 211.376 67.6516 208.577C68.9956 206.801 69.5875 206.492 70.3643 207.146ZM74.3841 218.666C77.0228 221.305 79.156 223.488 79.1314 223.513C79.0081 223.624 77.7134 223.846 76.7516 223.92C75.5678 224.018 73.3853 223.821 71.3014 223.439L69.8218 223.167L69.5505 221.749C69.1929 219.813 68.971 217.346 69.0696 216.211C69.1559 215.113 69.3902 213.855 69.5012 213.855C69.5382 213.855 71.733 216.014 74.3841 218.666ZM60.5738 227.237C61.5233 227.398 62.8796 227.669 63.5825 227.829L64.8772 228.113L65.1608 229.408C65.7527 231.974 66.3939 236.549 66.1719 236.549C66.1473 236.549 63.9277 234.354 61.252 231.665L56.3814 226.781L57.6145 226.867C58.2926 226.904 59.6244 227.077 60.5738 227.237ZM59.9943 233.01L65.95 238.967L65.6417 239.953C65.3334 240.903 64.6676 242.186 64.236 242.617C64.0387 242.827 63.6565 242.469 57.0719 235.883L50.1175 228.927L50.66 228.532C51.4862 227.928 53.0645 227.225 53.9769 227.065C54.0139 227.052 56.7143 229.729 59.9943 233.01ZM62.5097 244.344C62.0781 244.776 60.7958 245.442 59.834 245.75L58.8599 246.059L52.9042 240.101L46.9485 234.144L47.1211 233.491C47.3431 232.652 47.9226 231.456 48.4282 230.765L48.8227 230.222L55.7772 237.178C62.3618 243.764 62.7193 244.147 62.5097 244.344ZM51.6341 241.433L56.5047 246.318L55.3333 246.244C54.6921 246.194 53.6317 246.083 52.9905 245.985C51.5971 245.763 48.2679 245.072 48.0952 244.948C47.9596 244.862 47.2814 241.779 47.0101 240.003C46.8252 238.769 46.6279 236.549 46.7142 236.549C46.7389 236.549 48.9584 238.745 51.6341 241.433ZM40.6599 245.368C41.3627 245.466 41.9793 245.59 42.0286 245.652C42.2012 245.837 42.5958 247.896 42.4601 247.896C42.3862 247.896 41.6587 247.785 40.8448 247.65C35.6536 246.786 32.0284 247.551 29.1431 250.104C28.4279 250.745 28.2183 250.856 27.8237 250.856C27.4661 250.856 27.2935 250.782 27.0469 250.474C26.3934 249.697 26.7016 249.105 28.4772 247.773C30.2898 246.404 32.6326 245.491 35.0494 245.195C36.2825 245.047 38.9583 245.133 40.6599 245.368ZM39.3652 249.327C40.253 249.426 41.4367 249.611 42.0162 249.722L43.0643 249.944L43.3356 251.35C43.7055 253.372 43.9152 255.642 43.8165 256.838C43.7425 257.825 43.5206 259.12 43.4096 259.243C43.3603 259.305 33.7547 249.734 33.7547 249.598C33.7547 249.561 34.1616 249.463 34.6549 249.376C35.1358 249.302 35.629 249.216 35.7276 249.191C36.2455 249.093 37.9348 249.154 39.3652 249.327Z" fill="#414141"/>
<path fill-rule="evenodd" clip-rule="evenodd" d="M62.6435 55.4582C61.3354 56.4931 59.0602 60.2609 58.5773 62.1925C58.4396 62.7428 58.3121 62.8405 57.8967 62.7152C57.6153 62.6305 56.2349 62.4979 54.8288 62.4207C51.0936 62.2155 49.1077 62.7587 47.3244 64.4733C46.1582 65.5946 45.5796 67.2843 45.7973 68.9319C45.9234 69.8862 45.8718 70.2397 45.5555 70.5908C45.3342 70.836 45.096 71.5473 45.0258 72.1716C44.8002 74.1812 46.0727 75.6538 48.0349 75.6538C48.802 75.6538 49.0764 75.7886 49.5116 76.3795L50.0461 77.1049L48.8481 78.6736C46.4664 81.7924 45.3262 85.2124 45.9377 87.4039C46.5276 89.5192 48.2791 90.9875 50.9714 91.6236C52.234 91.922 56.7279 91.8458 57.8675 91.5068C58.2815 91.3836 58.435 91.5934 58.9524 92.9859C59.6943 94.9834 61.596 97.9415 62.6633 98.7586C63.4184 99.3367 63.6023 100.005 66.5583 100C69.2166 99.9954 69.7658 99.2907 70.2641 98.9062C70.68 98.5854 71.1014 98.4903 71.7319 98.5752C74.1667 98.9029 75.95 96.0416 74.6474 93.8974C74.2563 93.254 74.2305 93.0181 74.4675 92.2525C74.6937 91.5208 74.8313 91.3851 75.226 91.5044C76.3529 91.8453 80.8552 91.923 82.1221 91.6236C84.8088 90.9887 86.5659 89.5185 87.153 87.4146C87.7733 85.1911 86.6968 81.9468 84.2724 78.7324L83.0462 77.1069L83.5812 76.3802C83.9913 75.8237 84.3059 75.6538 84.927 75.6538C87.2894 75.6538 88.6933 73.3566 87.6508 71.1955C87.2412 70.3462 87.1698 69.8881 87.2971 68.9253C87.5139 67.2848 86.9331 65.5927 85.7691 64.4733C83.9858 62.7587 81.9999 62.2155 78.2647 62.4207C76.8587 62.4979 75.4912 62.6256 75.226 62.7045C74.812 62.8277 74.6585 62.6179 74.1411 61.2254C73.3993 59.2279 71.4975 56.2698 70.4302 55.4527C69.6756 54.8751 69.5008 53.9976 66.5468 54C63.5895 54.0027 63.3745 54.8799 62.6435 55.4582ZM68.7662 56.1967C70.2482 57.3313 71.0332 58.3529 72.1051 60.5418C72.6946 61.7456 73.1767 62.8618 73.1767 63.022C73.1767 63.1822 72.9328 63.3179 72.6343 63.3237C72.3361 63.3295 70.8442 63.7924 69.3193 64.3521L66.5468 65.3701L63.7742 64.3511C62.2493 63.7905 60.7575 63.3278 60.4592 63.3228C60.161 63.3174 59.9168 63.1822 59.9168 63.022C59.9168 62.4635 62.0796 58.3474 62.7587 57.6135C63.653 56.6468 64.9765 55.6523 65.5824 55.4916C66.472 55.2557 67.9704 55.5874 68.7662 56.1967ZM56.0533 64.0552C56.9118 64.1948 57.65 64.3453 57.6942 64.3894C57.738 64.4336 57.6122 65.1078 57.4143 65.8876C57.2166 66.6678 56.9208 68.2028 56.7568 69.299L56.4591 71.2921L55.0675 72.3892C54.302 72.9929 53.0814 74.0319 52.3547 74.6983C51.0495 75.8956 51.0295 75.904 50.6763 75.3978C50.3561 74.939 50.3677 74.775 50.7881 73.8207C51.1802 72.9319 51.2154 72.5982 51.002 71.8029C50.6847 70.6206 49.5849 69.6546 48.3259 69.4526C47.3803 69.3009 47.3801 69.3004 47.3801 68.1576C47.3801 66.094 48.7046 64.7276 51.239 64.1762C53.1798 63.7542 54.0675 63.7317 56.0533 64.0552ZM82.7367 64.4215C84.7254 65.0894 85.7134 66.3537 85.7134 68.2309C85.7134 69.2951 85.7081 69.3016 84.7322 69.4582C84.1924 69.5448 83.4817 69.7928 83.1526 70.0091C81.8678 70.8541 81.4849 72.7415 82.3196 74.1154C82.7364 74.8014 82.7463 74.9262 82.4199 75.394C82.0631 75.9052 82.0339 75.8902 80.2093 74.2548C79.1922 73.3433 77.9535 72.2924 77.4561 71.9193C76.9088 71.5086 76.551 71.0375 76.5493 70.7251C76.5481 70.4415 76.2822 68.9065 75.9587 67.3141C75.6349 65.7217 75.4121 64.3768 75.4632 64.3255C75.5143 64.2742 76.1327 64.1411 76.8377 64.0298C78.5576 63.7581 81.3044 63.9405 82.7367 64.4215ZM62.3106 65.5257L64.585 66.2862L63.6703 66.796C63.1674 67.0764 61.7814 67.8854 60.5904 68.5938C59.3994 69.3021 58.3784 69.8352 58.3217 69.7781C58.2648 69.7209 58.4526 68.5697 58.7391 67.2197C59.1376 65.341 59.3509 64.7651 59.648 64.7651C59.8616 64.7651 61.0595 65.1073 62.3106 65.5257ZM74.3545 67.2197C74.6409 68.5697 74.8337 69.7161 74.7829 69.7672C74.732 69.818 73.6174 69.2285 72.3062 68.4571C70.9949 67.6857 69.6238 66.9022 69.2595 66.7162C68.895 66.5298 68.6348 66.3394 68.6814 66.2927C68.8795 66.0938 72.8597 64.8 73.3245 64.7833C73.778 64.7671 73.8908 65.0337 74.3545 67.2197ZM68.9577 68.3512C70.1511 68.9875 72.0079 70.0754 73.0839 70.7687C74.9852 71.9933 75.0449 72.0608 75.1935 73.1494C75.3911 74.5959 75.3911 79.6154 75.1935 81.0619C75.0449 82.1505 74.9849 82.218 73.0839 83.4434C72.0079 84.1368 70.1115 85.2419 68.8697 85.8986L66.6118 87.093L64.9218 86.2734C63.9922 85.8224 62.0791 84.7299 60.6702 83.8455C58.2798 82.3448 58.0975 82.1749 57.9418 81.3048C57.7279 80.1112 57.7 74.6141 57.9001 73.1494C58.0486 72.0608 58.1084 71.9933 60.0096 70.7687C62.1541 69.3868 66.1644 67.194 66.5468 67.194C66.6794 67.194 67.7643 67.7148 68.9577 68.3512ZM49.0677 71.5403C49.7406 72.2157 49.6782 73.0979 48.9146 73.7004C48.5653 73.9762 48.1265 74.202 47.9394 74.202C47.4286 74.202 46.4157 73.0834 46.4157 72.5191C46.4157 71.8389 47.254 71.0564 47.9828 71.0564C48.3143 71.0564 48.8025 71.2742 49.0677 71.5403ZM85.9957 71.4568C86.8277 72.2125 86.4393 73.7853 85.3532 74.059C84.249 74.3373 83.1058 73.2695 83.4255 72.2585C83.7963 71.0862 85.1297 70.6702 85.9957 71.4568ZM64.5643 72.0514C59.9351 73.8374 59.9855 80.4267 64.6417 82.1752C66.2929 82.7951 66.8016 82.7949 68.4605 82.1718C73.1403 80.4146 73.115 73.7873 68.422 72.025C66.83 71.4271 66.1704 71.4317 64.5643 72.0514ZM68.2797 73.6348C70.7776 74.8246 71.1019 78.6327 68.8431 80.2469C66.663 81.8052 63.5136 80.6963 62.8246 78.1282C61.954 74.8836 65.2323 72.1835 68.2797 73.6348ZM56.2054 77.0858V80.6953L55.6189 80.2324C54.3201 79.2069 52.443 77.3561 52.443 77.1008C52.443 76.9513 52.5797 76.7008 52.7465 76.544C53.9336 75.4286 56.0974 73.4761 56.1461 73.4761C56.1787 73.4761 56.2054 75.1004 56.2054 77.0858ZM79.1647 75.4351C79.982 76.1796 80.6491 76.9418 80.6474 77.1289C80.6447 77.4222 79.0364 78.9865 77.3953 80.2919L76.8881 80.6953V77.1054C76.8881 73.0052 76.6723 73.1637 79.1647 75.4351ZM68.2848 76.5307C68.1908 76.6251 68.1138 76.8937 68.1138 77.1274C68.1138 77.3612 67.8233 77.8991 67.4682 78.3225C66.981 78.9037 66.8816 79.1868 67.0634 79.476C67.481 80.1405 67.8532 80.0773 68.7346 79.1927C69.4613 78.4634 69.5792 78.1953 69.5153 77.4171C69.457 76.7098 69.3275 76.4845 68.9478 76.4301C68.677 76.3911 68.3788 76.4366 68.2848 76.5307ZM55.5952 82.2596C56.3993 82.8624 56.4769 83.0393 56.7558 84.9056C56.9203 86.0056 57.2166 87.5435 57.4143 88.3237C57.6122 89.1035 57.7253 89.7907 57.6655 89.8505C57.3875 90.1297 54.1002 90.4298 52.8246 90.2926C48.9226 89.8723 47.2217 88.3926 47.4271 85.5964C47.5457 83.9776 48.417 81.9777 49.9308 79.8486L51.0336 78.2976L52.8835 79.9558C53.9009 80.8676 55.1213 81.9044 55.5952 82.2596ZM83.5079 80.3652C85.6888 83.6377 86.2817 86.3589 85.171 87.9968C84.3317 89.2342 83.5788 89.6627 81.4922 90.0903C79.8814 90.4203 79.2339 90.4407 77.5426 90.2139C76.43 90.0646 75.4861 89.9088 75.4449 89.8677C75.4039 89.8263 75.6349 88.4896 75.9587 86.8972C76.2822 85.3048 76.5481 83.7782 76.5493 83.5051C76.551 83.1745 77.2572 82.4343 78.6615 81.291C79.8219 80.3464 81.031 79.294 81.3485 78.9521C81.6662 78.6102 82.0127 78.3842 82.1185 78.4498C82.2246 78.5156 82.8498 79.3775 83.5079 80.3652ZM60.8616 85.8166C62.2013 86.6151 63.3779 87.2718 63.4758 87.2762C63.5736 87.2803 63.8494 87.4327 64.0886 87.6147C64.4789 87.9118 64.294 88.0224 62.2797 88.696C61.0458 89.1086 59.8623 89.4462 59.6497 89.4462C59.3601 89.4462 59.1583 88.9453 58.8449 87.4499C58.6147 86.3521 58.3702 85.2085 58.3015 84.9092C58.233 84.6099 58.2328 84.3648 58.3012 84.3648C58.3695 84.3648 59.5216 85.0181 60.8616 85.8166ZM74.792 84.9092C74.7233 85.2085 74.4789 86.3521 74.2486 87.4499C73.9352 88.9453 73.7334 89.4462 73.4439 89.4462C73.2312 89.4462 72.034 89.104 70.783 88.6856L68.5085 87.9251L69.4234 87.4153C69.9266 87.1349 71.2753 86.34 72.4204 85.6487C73.5656 84.9574 74.5958 84.3858 74.7096 84.3783C74.8236 84.3708 74.8605 84.6099 74.792 84.9092ZM70.6272 90.3209C71.5455 90.6383 72.4947 90.898 72.7367 90.898C73.2341 90.898 73.292 91.1975 72.9272 91.8818C72.7801 92.1577 72.4238 92.3498 72.0595 92.3498C70.916 92.3498 69.7701 93.0943 69.294 94.1462C68.7544 95.3386 68.7315 95.8915 69.1855 96.7648C69.518 97.4048 69.4991 97.4535 68.6715 98.0869C67.9911 98.6079 67.5514 98.7449 66.5583 98.7449C65.1308 98.7449 63.8866 97.994 62.5379 96.3193C61.798 95.4008 59.9168 91.7011 59.9168 91.1649C59.9168 91.018 60.161 90.8934 60.4592 90.8876C60.7575 90.8818 62.2493 90.4123 63.7742 89.8442L66.5468 88.8115L67.7522 89.2775C68.4152 89.534 69.7089 90.0034 70.6272 90.3209ZM72.8392 94.2287C73.4294 94.6243 73.6876 95.4732 73.3901 96.0399C73.0171 96.751 72.7129 96.939 71.9281 96.9436C70.6658 96.9509 70.0532 95.4516 70.9237 94.4862C71.3268 94.039 72.351 93.9016 72.8392 94.2287Z" fill="#414141"/>
<path fill-rule="evenodd" clip-rule="evenodd" d="M456.644 174.458C455.335 175.493 453.06 179.261 452.577 181.193C452.44 181.743 452.312 181.841 451.897 181.715C451.615 181.63 450.235 181.498 448.829 181.421C445.094 181.216 443.108 181.759 441.324 183.473C440.158 184.595 439.58 186.284 439.797 187.932C439.923 188.886 439.872 189.24 439.556 189.591C439.334 189.836 439.096 190.547 439.026 191.172C438.8 193.181 440.073 194.654 442.035 194.654C442.802 194.654 443.076 194.789 443.512 195.38L444.046 196.105L442.848 197.674C440.466 200.792 439.326 204.212 439.938 206.404C440.528 208.519 442.279 209.988 444.971 210.624C446.234 210.922 450.728 210.846 451.868 210.507C452.281 210.384 452.435 210.593 452.952 211.986C453.694 213.983 455.596 216.942 456.663 217.759C457.418 218.337 457.602 219.005 460.558 219C463.217 218.995 463.766 218.291 464.264 217.906C464.68 217.585 465.101 217.49 465.732 217.575C468.167 217.903 469.95 215.042 468.647 212.897C468.256 212.254 468.231 212.018 468.468 211.253C468.694 210.521 468.831 210.385 469.226 210.504C470.353 210.845 474.855 210.923 476.122 210.624C478.809 209.989 480.566 208.519 481.153 206.415C481.773 204.191 480.697 200.947 478.272 197.732L477.046 196.107L477.581 195.38C477.991 194.824 478.306 194.654 478.927 194.654C481.289 194.654 482.693 192.357 481.651 190.196C481.241 189.346 481.17 188.888 481.297 187.925C481.514 186.285 480.933 184.593 479.769 183.473C477.986 181.759 476 181.216 472.265 181.421C470.859 181.498 469.491 181.626 469.226 181.705C468.812 181.828 468.658 181.618 468.141 180.225C467.399 178.228 465.498 175.27 464.43 174.453C463.676 173.875 463.501 172.998 460.547 173C457.59 173.003 457.374 173.88 456.644 174.458ZM462.766 175.197C464.248 176.331 465.033 177.353 466.105 179.542C466.695 180.746 467.177 181.862 467.177 182.022C467.177 182.182 466.933 182.318 466.634 182.324C466.336 182.33 464.844 182.792 463.319 183.352L460.547 184.37L457.774 183.351C456.249 182.79 454.757 182.328 454.459 182.323C454.161 182.317 453.917 182.182 453.917 182.022C453.917 181.464 456.08 177.347 456.759 176.613C457.653 175.647 458.977 174.652 459.582 174.492C460.472 174.256 461.97 174.587 462.766 175.197ZM450.053 183.055C450.912 183.195 451.65 183.345 451.694 183.389C451.738 183.434 451.612 184.108 451.414 184.888C451.217 185.668 450.921 187.203 450.757 188.299L450.459 190.292L449.067 191.389C448.302 191.993 447.081 193.032 446.355 193.698C445.049 194.896 445.029 194.904 444.676 194.398C444.356 193.939 444.368 193.775 444.788 192.821C445.18 191.932 445.215 191.598 445.002 190.803C444.685 189.621 443.585 188.655 442.326 188.453C441.38 188.301 441.38 188.3 441.38 187.158C441.38 185.094 442.705 183.728 445.239 183.176C447.18 182.754 448.067 182.732 450.053 183.055ZM476.737 183.422C478.725 184.089 479.713 185.354 479.713 187.231C479.713 188.295 479.708 188.302 478.732 188.458C478.192 188.545 477.482 188.793 477.153 189.009C475.868 189.854 475.485 191.741 476.32 193.115C476.736 193.801 476.746 193.926 476.42 194.394C476.063 194.905 476.034 194.89 474.209 193.255C473.192 192.343 471.953 191.292 471.456 190.919C470.909 190.509 470.551 190.038 470.549 189.725C470.548 189.442 470.282 187.906 469.959 186.314C469.635 184.722 469.412 183.377 469.463 183.325C469.514 183.274 470.133 183.141 470.838 183.03C472.558 182.758 475.304 182.941 476.737 183.422ZM456.311 184.526L458.585 185.286L457.67 185.796C457.167 186.076 455.781 186.885 454.59 187.594C453.399 188.302 452.378 188.835 452.322 188.778C452.265 188.721 452.453 187.57 452.739 186.22C453.138 184.341 453.351 183.765 453.648 183.765C453.862 183.765 455.06 184.107 456.311 184.526ZM468.354 186.22C468.641 187.57 468.834 188.716 468.783 188.767C468.732 188.818 467.617 188.229 466.306 187.457C464.995 186.686 463.624 185.902 463.26 185.716C462.895 185.53 462.635 185.339 462.681 185.293C462.88 185.094 466.86 183.8 467.325 183.783C467.778 183.767 467.891 184.034 468.354 186.22ZM462.958 187.351C464.151 187.988 466.008 189.075 467.084 189.769C468.985 190.993 469.045 191.061 469.193 192.149C469.391 193.596 469.391 198.615 469.193 200.062C469.045 201.151 468.985 201.218 467.084 202.443C466.008 203.137 464.112 204.242 462.87 204.899L460.612 206.093L458.922 205.273C457.992 204.822 456.079 203.73 454.67 202.846C452.28 201.345 452.098 201.175 451.942 200.305C451.728 199.111 451.7 193.614 451.9 192.149C452.049 191.061 452.108 190.993 454.01 189.769C456.154 188.387 460.164 186.194 460.547 186.194C460.679 186.194 461.764 186.715 462.958 187.351ZM443.068 190.54C443.741 191.216 443.678 192.098 442.915 192.7C442.565 192.976 442.127 193.202 441.939 193.202C441.429 193.202 440.416 192.083 440.416 191.519C440.416 190.839 441.254 190.056 441.983 190.056C442.314 190.056 442.803 190.274 443.068 190.54ZM479.996 190.457C480.828 191.213 480.439 192.785 479.353 193.059C478.249 193.337 477.106 192.269 477.425 191.258C477.796 190.086 479.13 189.67 479.996 190.457ZM458.564 191.051C453.935 192.837 453.985 199.427 458.642 201.175C460.293 201.795 460.802 201.795 462.461 201.172C467.14 199.415 467.115 192.787 462.422 191.025C460.83 190.427 460.17 190.432 458.564 191.051ZM462.28 192.635C464.778 193.825 465.102 197.633 462.843 199.247C460.663 200.805 457.514 199.696 456.825 197.128C455.954 193.884 459.232 191.183 462.28 192.635ZM450.205 196.086V199.695L449.619 199.232C448.32 198.207 446.443 196.356 446.443 196.101C446.443 195.951 446.58 195.701 446.747 195.544C447.934 194.429 450.097 192.476 450.146 192.476C450.179 192.476 450.205 194.1 450.205 196.086ZM473.165 194.435C473.982 195.18 474.649 195.942 474.647 196.129C474.645 196.422 473.036 197.986 471.395 199.292L470.888 199.695V196.105C470.888 192.005 470.672 192.164 473.165 194.435ZM462.285 195.531C462.191 195.625 462.114 195.894 462.114 196.127C462.114 196.361 461.823 196.899 461.468 197.323C460.981 197.904 460.882 198.187 461.063 198.476C461.481 199.14 461.853 199.077 462.735 198.193C463.461 197.463 463.579 197.195 463.515 196.417C463.457 195.71 463.327 195.485 462.948 195.43C462.677 195.391 462.379 195.437 462.285 195.531ZM449.595 201.26C450.399 201.862 450.477 202.039 450.756 203.906C450.92 205.006 451.217 206.544 451.414 207.324C451.612 208.104 451.725 208.791 451.665 208.85C451.388 209.13 448.1 209.43 446.825 209.293C442.923 208.872 441.222 207.393 441.427 204.596C441.546 202.978 442.417 200.978 443.931 198.849L445.034 197.298L446.883 198.956C447.901 199.868 449.121 200.904 449.595 201.26ZM477.508 199.365C479.689 202.638 480.282 205.359 479.171 206.997C478.332 208.234 477.579 208.663 475.492 209.09C473.881 209.42 473.234 209.441 471.543 209.214C470.43 209.065 469.486 208.909 469.445 208.868C469.404 208.826 469.635 207.49 469.959 205.897C470.282 204.305 470.548 202.778 470.549 202.505C470.551 202.175 471.257 201.434 472.662 200.291C473.822 199.346 475.031 198.294 475.348 197.952C475.666 197.61 476.013 197.384 476.119 197.45C476.225 197.516 476.85 198.378 477.508 199.365ZM454.862 204.817C456.201 205.615 457.378 206.272 457.476 206.276C457.574 206.28 457.849 206.433 458.089 206.615C458.479 206.912 458.294 207.022 456.28 207.696C455.046 208.109 453.862 208.446 453.65 208.446C453.36 208.446 453.158 207.945 452.845 206.45C452.615 205.352 452.37 204.209 452.301 203.909C452.233 203.61 452.233 203.365 452.301 203.365C452.369 203.365 453.522 204.018 454.862 204.817ZM468.792 203.909C468.723 204.209 468.479 205.352 468.249 206.45C467.935 207.945 467.733 208.446 467.444 208.446C467.231 208.446 466.034 208.104 464.783 207.686L462.509 206.925L463.423 206.415C463.927 206.135 465.275 205.34 466.42 204.649C467.566 203.957 468.596 203.386 468.71 203.378C468.824 203.371 468.861 203.61 468.792 203.909ZM464.627 209.321C465.546 209.638 466.495 209.898 466.737 209.898C467.234 209.898 467.292 210.198 466.927 210.882C466.78 211.158 466.424 211.35 466.06 211.35C464.916 211.35 463.77 212.094 463.294 213.146C462.754 214.339 462.732 214.892 463.185 215.765C463.518 216.405 463.499 216.453 462.671 217.087C461.991 217.608 461.551 217.745 460.558 217.745C459.131 217.745 457.887 216.994 456.538 215.319C455.798 214.401 453.917 210.701 453.917 210.165C453.917 210.018 454.161 209.893 454.459 209.888C454.757 209.882 456.249 209.412 457.774 208.844L460.547 207.811L461.752 208.278C462.415 208.534 463.709 209.003 464.627 209.321ZM466.839 213.229C467.429 213.624 467.688 214.473 467.39 215.04C467.017 215.751 466.713 215.939 465.928 215.944C464.666 215.951 464.053 214.452 464.924 213.486C465.327 213.039 466.351 212.902 466.839 213.229Z" fill="#414141"/>
<path fill-rule="evenodd" clip-rule="evenodd" d="M176.644 276.458C175.335 277.493 173.06 281.261 172.577 283.193C172.44 283.743 172.312 283.841 171.897 283.715C171.615 283.63 170.235 283.498 168.829 283.421C165.094 283.216 163.108 283.759 161.324 285.473C160.158 286.595 159.58 288.284 159.797 289.932C159.923 290.886 159.872 291.24 159.556 291.591C159.334 291.836 159.096 292.547 159.026 293.172C158.8 295.181 160.073 296.654 162.035 296.654C162.802 296.654 163.076 296.789 163.512 297.38L164.046 298.105L162.848 299.674C160.466 302.792 159.326 306.212 159.938 308.404C160.528 310.519 162.279 311.988 164.971 312.624C166.234 312.922 170.728 312.846 171.868 312.507C172.281 312.384 172.435 312.593 172.952 313.986C173.694 315.983 175.596 318.942 176.663 319.759C177.418 320.337 177.602 321.005 180.558 321C183.217 320.995 183.766 320.291 184.264 319.906C184.68 319.585 185.101 319.49 185.732 319.575C188.167 319.903 189.95 317.042 188.647 314.897C188.256 314.254 188.231 314.018 188.468 313.253C188.694 312.521 188.831 312.385 189.226 312.504C190.353 312.845 194.855 312.923 196.122 312.624C198.809 311.989 200.566 310.519 201.153 308.415C201.773 306.191 200.697 302.947 198.272 299.732L197.046 298.107L197.581 297.38C197.991 296.824 198.306 296.654 198.927 296.654C201.289 296.654 202.693 294.357 201.651 292.196C201.241 291.346 201.17 290.888 201.297 289.925C201.514 288.285 200.933 286.593 199.769 285.473C197.986 283.759 196 283.216 192.265 283.421C190.859 283.498 189.491 283.626 189.226 283.705C188.812 283.828 188.658 283.618 188.141 282.225C187.399 280.228 185.498 277.27 184.43 276.453C183.676 275.875 183.501 274.998 180.547 275C177.59 275.003 177.374 275.88 176.644 276.458ZM182.766 277.197C184.248 278.331 185.033 279.353 186.105 281.542C186.695 282.746 187.177 283.862 187.177 284.022C187.177 284.182 186.933 284.318 186.634 284.324C186.336 284.33 184.844 284.792 183.319 285.352L180.547 286.37L177.774 285.351C176.249 284.79 174.757 284.328 174.459 284.323C174.161 284.317 173.917 284.182 173.917 284.022C173.917 283.464 176.08 279.347 176.759 278.613C177.653 277.647 178.977 276.652 179.582 276.492C180.472 276.256 181.97 276.587 182.766 277.197ZM170.053 285.055C170.912 285.195 171.65 285.345 171.694 285.389C171.738 285.434 171.612 286.108 171.414 286.888C171.217 287.668 170.921 289.203 170.757 290.299L170.459 292.292L169.067 293.389C168.302 293.993 167.081 295.032 166.355 295.698C165.049 296.896 165.029 296.904 164.676 296.398C164.356 295.939 164.368 295.775 164.788 294.821C165.18 293.932 165.215 293.598 165.002 292.803C164.685 291.621 163.585 290.655 162.326 290.453C161.38 290.301 161.38 290.3 161.38 289.158C161.38 287.094 162.705 285.728 165.239 285.176C167.18 284.754 168.067 284.732 170.053 285.055ZM196.737 285.422C198.725 286.089 199.713 287.354 199.713 289.231C199.713 290.295 199.708 290.302 198.732 290.458C198.192 290.545 197.482 290.793 197.153 291.009C195.868 291.854 195.485 293.741 196.32 295.115C196.736 295.801 196.746 295.926 196.42 296.394C196.063 296.905 196.034 296.89 194.209 295.255C193.192 294.343 191.953 293.292 191.456 292.919C190.909 292.509 190.551 292.038 190.549 291.725C190.548 291.442 190.282 289.906 189.959 288.314C189.635 286.722 189.412 285.377 189.463 285.325C189.514 285.274 190.133 285.141 190.838 285.03C192.558 284.758 195.304 284.941 196.737 285.422ZM176.311 286.526L178.585 287.286L177.67 287.796C177.167 288.076 175.781 288.885 174.59 289.594C173.399 290.302 172.378 290.835 172.322 290.778C172.265 290.721 172.453 289.57 172.739 288.22C173.138 286.341 173.351 285.765 173.648 285.765C173.862 285.765 175.06 286.107 176.311 286.526ZM188.354 288.22C188.641 289.57 188.834 290.716 188.783 290.767C188.732 290.818 187.617 290.229 186.306 289.457C184.995 288.686 183.624 287.902 183.26 287.716C182.895 287.53 182.635 287.339 182.681 287.293C182.88 287.094 186.86 285.8 187.325 285.783C187.778 285.767 187.891 286.034 188.354 288.22ZM182.958 289.351C184.151 289.988 186.008 291.075 187.084 291.769C188.985 292.993 189.045 293.061 189.193 294.149C189.391 295.596 189.391 300.615 189.193 302.062C189.045 303.151 188.985 303.218 187.084 304.443C186.008 305.137 184.112 306.242 182.87 306.899L180.612 308.093L178.922 307.273C177.992 306.822 176.079 305.73 174.67 304.846C172.28 303.345 172.098 303.175 171.942 302.305C171.728 301.111 171.7 295.614 171.9 294.149C172.049 293.061 172.108 292.993 174.01 291.769C176.154 290.387 180.164 288.194 180.547 288.194C180.679 288.194 181.764 288.715 182.958 289.351ZM163.068 292.54C163.741 293.216 163.678 294.098 162.915 294.7C162.565 294.976 162.127 295.202 161.939 295.202C161.429 295.202 160.416 294.083 160.416 293.519C160.416 292.839 161.254 292.056 161.983 292.056C162.314 292.056 162.803 292.274 163.068 292.54ZM199.996 292.457C200.828 293.213 200.439 294.785 199.353 295.059C198.249 295.337 197.106 294.269 197.425 293.258C197.796 292.086 199.13 291.67 199.996 292.457ZM178.564 293.051C173.935 294.837 173.985 301.427 178.642 303.175C180.293 303.795 180.802 303.795 182.461 303.172C187.14 301.415 187.115 294.787 182.422 293.025C180.83 292.427 180.17 292.432 178.564 293.051ZM182.28 294.635C184.778 295.825 185.102 299.633 182.843 301.247C180.663 302.805 177.514 301.696 176.825 299.128C175.954 295.884 179.232 293.183 182.28 294.635ZM170.205 298.086V301.695L169.619 301.232C168.32 300.207 166.443 298.356 166.443 298.101C166.443 297.951 166.58 297.701 166.747 297.544C167.934 296.429 170.097 294.476 170.146 294.476C170.179 294.476 170.205 296.1 170.205 298.086ZM193.165 296.435C193.982 297.18 194.649 297.942 194.647 298.129C194.645 298.422 193.036 299.986 191.395 301.292L190.888 301.695V298.105C190.888 294.005 190.672 294.164 193.165 296.435ZM182.285 297.531C182.191 297.625 182.114 297.894 182.114 298.127C182.114 298.361 181.823 298.899 181.468 299.323C180.981 299.904 180.882 300.187 181.063 300.476C181.481 301.14 181.853 301.077 182.735 300.193C183.461 299.463 183.579 299.195 183.515 298.417C183.457 297.71 183.327 297.485 182.948 297.43C182.677 297.391 182.379 297.437 182.285 297.531ZM169.595 303.26C170.399 303.862 170.477 304.039 170.756 305.906C170.92 307.006 171.217 308.544 171.414 309.324C171.612 310.104 171.725 310.791 171.665 310.85C171.388 311.13 168.1 311.43 166.825 311.293C162.923 310.872 161.222 309.393 161.427 306.596C161.546 304.978 162.417 302.978 163.931 300.849L165.034 299.298L166.883 300.956C167.901 301.868 169.121 302.904 169.595 303.26ZM197.508 301.365C199.689 304.638 200.282 307.359 199.171 308.997C198.332 310.234 197.579 310.663 195.492 311.09C193.881 311.42 193.234 311.441 191.543 311.214C190.43 311.065 189.486 310.909 189.445 310.868C189.404 310.826 189.635 309.49 189.959 307.897C190.282 306.305 190.548 304.778 190.549 304.505C190.551 304.175 191.257 303.434 192.662 302.291C193.822 301.346 195.031 300.294 195.348 299.952C195.666 299.61 196.013 299.384 196.119 299.45C196.225 299.516 196.85 300.378 197.508 301.365ZM174.862 306.817C176.201 307.615 177.378 308.272 177.476 308.276C177.574 308.28 177.849 308.433 178.089 308.615C178.479 308.912 178.294 309.022 176.28 309.696C175.046 310.109 173.862 310.446 173.65 310.446C173.36 310.446 173.158 309.945 172.845 308.45C172.615 307.352 172.37 306.209 172.301 305.909C172.233 305.61 172.233 305.365 172.301 305.365C172.369 305.365 173.522 306.018 174.862 306.817ZM188.792 305.909C188.723 306.209 188.479 307.352 188.249 308.45C187.935 309.945 187.733 310.446 187.444 310.446C187.231 310.446 186.034 310.104 184.783 309.686L182.509 308.925L183.423 308.415C183.927 308.135 185.275 307.34 186.42 306.649C187.566 305.957 188.596 305.386 188.71 305.378C188.824 305.371 188.861 305.61 188.792 305.909ZM184.627 311.321C185.546 311.638 186.495 311.898 186.737 311.898C187.234 311.898 187.292 312.198 186.927 312.882C186.78 313.158 186.424 313.35 186.06 313.35C184.916 313.35 183.77 314.094 183.294 315.146C182.754 316.339 182.732 316.892 183.185 317.765C183.518 318.405 183.499 318.453 182.671 319.087C181.991 319.608 181.551 319.745 180.558 319.745C179.131 319.745 177.887 318.994 176.538 317.319C175.798 316.401 173.917 312.701 173.917 312.165C173.917 312.018 174.161 311.893 174.459 311.888C174.757 311.882 176.249 311.412 177.774 310.844L180.547 309.811L181.752 310.278C182.415 310.534 183.709 311.003 184.627 311.321ZM186.839 315.229C187.429 315.624 187.688 316.473 187.39 317.04C187.017 317.751 186.713 317.939 185.928 317.944C184.666 317.951 184.053 316.452 184.924 315.486C185.327 315.039 186.351 314.902 186.839 315.229Z" fill="#414141"/>
<path fill-rule="evenodd" clip-rule="evenodd" d="M58.0735 354.111C57.8227 354.257 54.4528 361.001 54.4528 361.356C54.4528 361.507 54.5715 361.749 54.7164 361.894C54.9682 362.146 55.0399 362.158 56.327 362.158H57.6741V371.397V380.636H54.6284C51.7097 380.636 51.5709 380.646 51.2997 380.859C50.9001 381.174 50.9001 381.818 51.2997 382.133C51.5709 382.346 51.7097 382.355 54.6271 382.355H57.6715L57.6996 395.472L57.7277 408.588L57.9813 408.793C58.3563 409.097 58.8973 409.062 59.1695 408.716C59.3918 408.433 59.3921 408.422 59.3921 395.394V382.355H61.808C63.1368 382.355 64.2239 382.38 64.2239 382.41C64.2239 382.44 64.0116 382.962 63.752 383.57C63.1011 385.095 62.3688 387.304 61.9248 389.081C61.2003 391.981 60.9155 393.996 60.8237 396.87C60.7581 398.925 60.762 398.981 60.9869 399.206C61.2793 399.499 61.8911 399.515 62.1686 399.237C62.3353 399.071 62.38 398.794 62.4415 397.545C62.6374 393.574 63.1995 390.343 64.2618 387.082C64.6126 386.006 65.4084 383.919 65.5959 383.584C65.6605 383.468 65.8826 383.756 66.4205 384.654C68.0409 387.356 69.7718 389.535 72.3227 392.083C74.4363 394.194 75.8445 395.355 78.1827 396.915C84.2408 400.956 90.8817 403.117 98.338 403.476C100.062 403.559 100.418 403.481 100.628 402.973C100.799 402.56 100.606 402.075 100.212 401.926C100.055 401.867 99.1918 401.789 98.2944 401.753C85.6414 401.252 74.0962 394.304 67.5711 383.262C67.3247 382.845 67.1231 382.47 67.1231 382.43C67.1231 382.389 74.0327 382.355 82.4777 382.355H97.8323V383.703C97.8323 384.991 97.844 385.063 98.0959 385.315C98.4584 385.677 98.7742 385.647 99.7517 385.155C100.375 384.842 100.625 384.652 100.721 384.423C100.961 383.842 100.557 383.272 99.9167 383.29L99.5503 383.301V381.485C99.5503 380.486 99.575 379.669 99.6053 379.669C99.6796 379.669 103.133 381.398 103.201 381.469C103.231 381.5 103.188 381.549 103.107 381.578C102.563 381.771 102.368 382.596 102.772 383C103.115 383.343 103.582 383.26 104.758 382.647C105.926 382.038 106.133 381.783 105.933 381.2C105.846 380.947 105.343 380.657 102.396 379.165C100.49 378.199 98.8261 377.422 98.6597 377.419C98.4787 377.416 98.2548 377.518 98.0959 377.677C97.844 377.929 97.8323 378.001 97.8323 379.289V380.636H82.4777C74.0327 380.636 67.1231 380.603 67.1231 380.562C67.1231 380.521 67.3247 380.146 67.5711 379.729C70.7067 374.424 74.9957 370.031 80.1964 366.798C85.6501 363.408 91.9375 361.478 98.3155 361.235C99.2014 361.201 100.055 361.125 100.212 361.066C100.606 360.917 100.799 360.432 100.628 360.019C100.418 359.511 100.062 359.433 98.338 359.516C90.7505 359.881 84.0689 362.083 77.9143 366.247C75.7936 367.682 74.3381 368.895 72.3227 370.909C69.7691 373.459 68.0411 375.635 66.4155 378.346L65.6743 379.583L65.4221 379.008C64.5688 377.064 63.6527 374.119 63.2048 371.881C62.791 369.813 62.6246 368.48 62.488 366.14C62.3788 364.27 62.331 363.917 62.1645 363.75C61.8911 363.477 61.2771 363.495 60.9869 363.785C60.762 364.01 60.7581 364.066 60.8237 366.122C60.9149 368.975 61.2004 370.993 61.9263 373.911C62.3673 375.683 63.0989 377.892 63.752 379.422C64.0116 380.029 64.2239 380.552 64.2239 380.582C64.2239 380.612 63.1368 380.636 61.808 380.636H59.3921V371.397V362.158H60.7391C62.0262 362.158 62.0979 362.146 62.3497 361.894C62.7263 361.518 62.6786 361.17 62.0994 360.063C61.7261 359.35 61.5197 359.071 61.313 359C60.6284 358.765 60.0099 359.363 60.2437 360.034C60.3068 360.215 60.3584 360.381 60.3584 360.401C60.3584 360.422 59.537 360.439 58.5331 360.439C57.5291 360.439 56.7077 360.414 56.7077 360.384C56.7077 360.326 58.4235 356.869 58.4858 356.801C58.5056 356.779 58.6516 356.864 58.8103 356.989C59.1747 357.276 59.5003 357.277 59.8608 356.993C60.0522 356.843 60.1437 356.668 60.1437 356.454C60.1437 356.135 59.4037 354.531 59.0952 354.181C58.9121 353.974 58.3729 353.937 58.0735 354.111ZM51.2316 363.769C50.8397 364.161 50.9486 364.587 51.7195 365.678L52.4221 366.672L51.7195 367.68C50.8516 368.926 50.7917 369.441 51.4816 369.732C52.1084 369.995 52.2676 369.843 54.0526 367.281C54.9657 365.97 55.7703 364.787 55.8404 364.652C56.1051 364.142 55.6999 363.555 55.0829 363.555C54.6597 363.555 54.5284 363.677 53.6468 364.893L53.4315 365.19L53.0026 364.563C52.7667 364.218 52.4892 363.85 52.3858 363.745C52.1284 363.484 51.5039 363.497 51.2316 363.769ZM101.367 371.281C100.884 371.766 100.912 371.868 101.919 373.292L102.537 374.165L101.828 375.169C101.289 375.931 101.118 376.261 101.118 376.538C101.118 377.024 101.483 377.329 102.01 377.284C102.342 377.256 102.463 377.158 102.931 376.533C103.227 376.137 103.498 375.787 103.532 375.754C103.566 375.722 103.755 375.924 103.952 376.205C104.561 377.076 104.82 377.306 105.189 377.306C105.617 377.306 105.993 376.923 105.993 376.487C105.993 376.267 105.774 375.85 105.298 375.162L104.603 374.158L105.298 373.161C106.09 372.025 106.167 371.669 105.717 371.219C105.495 370.997 105.375 370.956 105.1 371.009C104.732 371.08 104.54 371.266 103.945 372.133L103.562 372.691L103.051 371.95C102.333 370.909 101.909 370.74 101.367 371.281ZM82.9259 388.835C82.5282 389.259 82.618 389.649 83.3367 390.619C83.691 391.097 83.981 391.536 83.981 391.594C83.981 391.653 83.691 392.092 83.3367 392.57C82.585 393.584 82.5007 394.006 82.9754 394.38C83.3075 394.641 83.6312 394.664 83.941 394.447C84.2293 394.245 87.477 389.896 87.571 389.586C87.6702 389.259 87.3657 388.712 87.0392 388.63C86.5402 388.505 86.2516 388.677 85.6808 389.44L85.1258 390.182L84.6059 389.495C83.87 388.522 83.3948 388.336 82.9259 388.835ZM92.4554 388.864C92.1956 389.141 92.1952 389.145 92.1952 391.613V394.084L92.4964 394.343C92.8812 394.674 93.2621 394.673 93.5959 394.339L93.8595 394.075V391.553V389.032L93.5765 388.809C93.1902 388.505 92.773 388.525 92.4554 388.864ZM88.5396 389.387C88.1849 389.742 88.2025 390.141 88.5898 390.528C88.8782 390.817 88.966 390.842 89.6718 390.842C90.3777 390.842 90.4654 390.817 90.7539 390.528C91.1412 390.141 91.1588 389.742 90.8041 389.387C90.5678 389.151 90.4511 389.124 89.6718 389.124C88.8926 389.124 88.7759 389.151 88.5396 389.387ZM96.5996 389.832C95.6765 390.17 95.0453 391.104 95.0453 392.132C95.0453 394.052 97.0791 395.209 98.742 394.234C99.3181 393.896 99.8213 393.183 99.9276 392.553C100.241 390.699 98.3821 389.18 96.5996 389.832ZM102.48 389.929C100.721 390.822 100.627 393.256 102.313 394.248C102.749 394.504 102.943 394.549 103.615 394.549H104.404L104.358 395.111C104.301 395.796 104.096 396.045 103.456 396.206C102.875 396.353 102.614 396.789 102.795 397.31C103.006 397.916 103.799 398.005 104.719 397.526C105.163 397.294 105.375 397.092 105.644 396.644L105.993 396.062L105.99 393.802C105.988 391.84 105.962 391.484 105.791 391.111C105.39 390.235 104.695 389.766 103.689 389.692C103.141 389.652 102.953 389.689 102.48 389.929ZM98.0471 391.594C98.7006 392.248 97.7615 393.252 96.9973 392.716C96.8202 392.592 96.7586 392.441 96.7586 392.132C96.7586 391.822 96.8202 391.671 96.9973 391.547C97.3261 391.316 97.7901 391.337 98.0471 391.594ZM104.115 391.596C104.56 392.088 104.222 392.884 103.568 392.884C103.191 392.884 102.772 392.487 102.772 392.132C102.772 392.029 102.872 391.818 102.994 391.663C103.273 391.309 103.825 391.276 104.115 391.596ZM88.7399 392.045C88.38 392.219 88.2194 392.703 88.3871 393.108C88.5603 393.526 88.8517 393.636 89.7911 393.636C90.4436 393.636 90.5746 393.602 90.8041 393.372C91.2274 392.949 91.1461 392.341 90.6305 392.074C90.2796 391.892 89.0927 391.874 88.7399 392.045Z" fill="#414141"/>
<path fill-rule="evenodd" clip-rule="evenodd" d="M419.073 390.111C418.823 390.257 415.453 397.001 415.453 397.356C415.453 397.507 415.571 397.749 415.716 397.894C415.968 398.146 416.04 398.158 417.327 398.158H418.674V407.397V416.636H415.628C412.71 416.636 412.571 416.646 412.3 416.859C411.9 417.174 411.9 417.818 412.3 418.133C412.571 418.346 412.71 418.355 415.627 418.355H418.671L418.7 431.472L418.728 444.588L418.981 444.793C419.356 445.097 419.897 445.062 420.169 444.716C420.392 444.433 420.392 444.422 420.392 431.394V418.355H422.808C424.137 418.355 425.224 418.38 425.224 418.41C425.224 418.44 425.012 418.962 424.752 419.57C424.101 421.095 423.369 423.304 422.925 425.081C422.2 427.981 421.915 429.996 421.824 432.87C421.758 434.925 421.762 434.981 421.987 435.206C422.279 435.499 422.891 435.515 423.169 435.237C423.335 435.071 423.38 434.794 423.442 433.545C423.637 429.574 424.199 426.343 425.262 423.082C425.613 422.006 426.408 419.919 426.596 419.584C426.661 419.468 426.883 419.756 427.421 420.654C429.041 423.356 430.772 425.535 433.323 428.083C435.436 430.194 436.845 431.355 439.183 432.915C445.241 436.956 451.882 439.117 459.338 439.476C461.062 439.559 461.418 439.481 461.628 438.973C461.799 438.56 461.606 438.075 461.212 437.926C461.055 437.867 460.192 437.789 459.294 437.753C446.641 437.252 435.096 430.304 428.571 419.262C428.325 418.845 428.123 418.47 428.123 418.43C428.123 418.389 435.033 418.355 443.478 418.355H458.832V419.703C458.832 420.991 458.844 421.063 459.096 421.315C459.458 421.677 459.774 421.647 460.752 421.155C461.375 420.842 461.625 420.652 461.721 420.423C461.961 419.842 461.557 419.272 460.917 419.29L460.55 419.301V417.485C460.55 416.486 460.575 415.669 460.605 415.669C460.68 415.669 464.133 417.398 464.201 417.469C464.231 417.5 464.188 417.549 464.107 417.578C463.563 417.771 463.368 418.596 463.772 419C464.115 419.343 464.582 419.26 465.758 418.647C466.926 418.038 467.133 417.783 466.933 417.2C466.846 416.947 466.343 416.657 463.396 415.165C461.49 414.199 459.826 413.422 459.66 413.419C459.479 413.416 459.255 413.518 459.096 413.677C458.844 413.929 458.832 414.001 458.832 415.289V416.636H443.478C435.033 416.636 428.123 416.603 428.123 416.562C428.123 416.521 428.325 416.146 428.571 415.729C431.707 410.424 435.996 406.031 441.196 402.798C446.65 399.408 452.937 397.478 459.316 397.235C460.201 397.201 461.055 397.125 461.212 397.066C461.606 396.917 461.799 396.432 461.628 396.019C461.418 395.511 461.062 395.433 459.338 395.516C451.751 395.881 445.069 398.083 438.914 402.247C436.794 403.682 435.338 404.895 433.323 406.909C430.769 409.459 429.041 411.635 427.415 414.346L426.674 415.583L426.422 415.008C425.569 413.064 424.653 410.119 424.205 407.881C423.791 405.813 423.625 404.48 423.488 402.14C423.379 400.27 423.331 399.917 423.164 399.75C422.891 399.477 422.277 399.495 421.987 399.785C421.762 400.01 421.758 400.066 421.824 402.122C421.915 404.975 422.2 406.993 422.926 409.911C423.367 411.683 424.099 413.892 424.752 415.422C425.012 416.029 425.224 416.552 425.224 416.582C425.224 416.612 424.137 416.636 422.808 416.636H420.392V407.397V398.158H421.739C423.026 398.158 423.098 398.146 423.35 397.894C423.726 397.518 423.679 397.17 423.099 396.063C422.726 395.35 422.52 395.071 422.313 395C421.628 394.765 421.01 395.363 421.244 396.034C421.307 396.215 421.358 396.381 421.358 396.401C421.358 396.422 420.537 396.439 419.533 396.439C418.529 396.439 417.708 396.414 417.708 396.384C417.708 396.326 419.424 392.869 419.486 392.801C419.506 392.779 419.652 392.864 419.81 392.989C420.175 393.276 420.5 393.277 420.861 392.993C421.052 392.843 421.144 392.668 421.144 392.454C421.144 392.135 420.404 390.531 420.095 390.181C419.912 389.974 419.373 389.937 419.073 390.111ZM412.232 399.769C411.84 400.161 411.949 400.587 412.719 401.678L413.422 402.672L412.719 403.68C411.852 404.926 411.792 405.441 412.482 405.732C413.108 405.995 413.268 405.843 415.053 403.281C415.966 401.97 416.77 400.787 416.84 400.652C417.105 400.142 416.7 399.555 416.083 399.555C415.66 399.555 415.528 399.677 414.647 400.893L414.431 401.19L414.003 400.563C413.767 400.218 413.489 399.85 413.386 399.745C413.128 399.484 412.504 399.497 412.232 399.769ZM462.367 407.281C461.884 407.766 461.912 407.868 462.919 409.292L463.537 410.165L462.828 411.169C462.289 411.931 462.118 412.261 462.118 412.538C462.118 413.024 462.483 413.329 463.01 413.284C463.342 413.256 463.463 413.158 463.931 412.533C464.227 412.137 464.498 411.787 464.532 411.754C464.566 411.722 464.755 411.924 464.952 412.205C465.561 413.076 465.82 413.306 466.189 413.306C466.617 413.306 466.993 412.923 466.993 412.487C466.993 412.267 466.774 411.85 466.298 411.162L465.603 410.158L466.298 409.161C467.09 408.025 467.167 407.669 466.717 407.219C466.495 406.997 466.375 406.956 466.1 407.009C465.732 407.08 465.54 407.266 464.945 408.133L464.562 408.691L464.051 407.95C463.333 406.909 462.909 406.74 462.367 407.281ZM443.926 424.835C443.528 425.259 443.618 425.649 444.337 426.619C444.691 427.097 444.981 427.536 444.981 427.594C444.981 427.653 444.691 428.092 444.337 428.57C443.585 429.584 443.501 430.006 443.975 430.38C444.308 430.641 444.631 430.664 444.941 430.447C445.229 430.245 448.477 425.896 448.571 425.586C448.67 425.259 448.366 424.712 448.039 424.63C447.54 424.505 447.252 424.677 446.681 425.44L446.126 426.182L445.606 425.495C444.87 424.522 444.395 424.336 443.926 424.835ZM453.455 424.864C453.196 425.141 453.195 425.145 453.195 427.613V430.084L453.496 430.343C453.881 430.674 454.262 430.673 454.596 430.339L454.859 430.075V427.553V425.032L454.577 424.809C454.19 424.505 453.773 424.525 453.455 424.864ZM449.54 425.387C449.185 425.742 449.203 426.141 449.59 426.528C449.878 426.817 449.966 426.842 450.672 426.842C451.378 426.842 451.465 426.817 451.754 426.528C452.141 426.141 452.159 425.742 451.804 425.387C451.568 425.151 451.451 425.124 450.672 425.124C449.893 425.124 449.776 425.151 449.54 425.387ZM457.6 425.832C456.676 426.17 456.045 427.104 456.045 428.132C456.045 430.052 458.079 431.209 459.742 430.234C460.318 429.896 460.821 429.183 460.928 428.553C461.241 426.699 459.382 425.18 457.6 425.832ZM463.48 425.929C461.721 426.822 461.627 429.256 463.313 430.248C463.749 430.504 463.943 430.549 464.615 430.549H465.404L465.358 431.111C465.301 431.796 465.096 432.045 464.456 432.206C463.875 432.353 463.614 432.789 463.795 433.31C464.006 433.916 464.799 434.005 465.719 433.526C466.163 433.294 466.375 433.092 466.644 432.644L466.993 432.062L466.99 429.802C466.988 427.84 466.962 427.484 466.791 427.111C466.39 426.235 465.695 425.766 464.689 425.692C464.141 425.652 463.953 425.689 463.48 425.929ZM459.047 427.594C459.701 428.248 458.761 429.252 457.997 428.716C457.82 428.592 457.759 428.441 457.759 428.132C457.759 427.822 457.82 427.671 457.997 427.547C458.326 427.316 458.79 427.337 459.047 427.594ZM465.115 427.596C465.56 428.088 465.222 428.884 464.568 428.884C464.191 428.884 463.772 428.487 463.772 428.132C463.772 428.029 463.872 427.818 463.994 427.663C464.273 427.309 464.825 427.276 465.115 427.596ZM449.74 428.045C449.38 428.219 449.219 428.703 449.387 429.108C449.56 429.526 449.852 429.636 450.791 429.636C451.444 429.636 451.575 429.602 451.804 429.372C452.227 428.949 452.146 428.341 451.63 428.074C451.28 427.892 450.093 427.874 449.74 428.045Z" fill="#414141"/>
<path fill-rule="evenodd" clip-rule="evenodd" d="M337.561 275.138C335.948 275.672 334.726 276.734 334.012 278.221C333.575 279.131 333.561 279.202 333.561 280.597C333.561 281.992 333.575 282.063 334.012 282.973C334.606 284.209 335.513 285.117 336.748 285.711C337.658 286.149 337.728 286.162 339.13 286.162C340.55 286.162 340.589 286.155 341.537 285.686C342.781 285.071 343.594 284.257 344.209 283.013C344.678 282.063 344.685 282.026 344.685 280.597C344.685 279.168 344.678 279.131 344.209 278.181C343.584 276.917 342.736 276.071 341.506 275.486C340.642 275.075 340.453 275.034 339.311 275.004C338.524 274.984 337.875 275.034 337.561 275.138ZM340.435 277.838C342.345 278.67 342.761 281.381 341.2 282.822C339.994 283.934 338.252 283.934 337.047 282.822C335.831 281.7 335.742 279.797 336.848 278.572C337.796 277.521 339.097 277.255 340.435 277.838ZM324.753 281.122C323.819 281.482 322.873 282.44 322.518 283.388C321.72 285.524 322.753 287.944 324.789 288.707C327.544 289.738 330.374 287.815 330.374 284.912C330.374 282.002 327.502 280.067 324.753 281.122ZM327.167 283.665C327.56 283.939 327.764 284.332 327.771 284.828C327.791 286.258 326.248 286.954 325.257 285.964C324.644 285.35 324.648 284.469 325.267 283.85C325.465 283.652 325.752 283.466 325.906 283.435C326.285 283.361 326.886 283.47 327.167 283.665ZM327.125 291.695C326.34 291.972 325.231 293.105 324.959 293.907C324.691 294.694 324.691 295.764 324.959 296.551C325.199 297.258 326.383 298.54 326.92 298.675L327.249 298.758V301.189V303.619L319.485 316.964C315.214 324.303 311.676 330.365 311.622 330.433C311.319 330.817 311 332.186 311 333.105C311 335.755 312.622 337.986 315.107 338.754C315.88 338.994 316.361 339 333.498 339C350.785 339 351.11 338.995 351.89 338.748C353.22 338.327 354.404 337.419 355.149 336.249C356.11 334.739 356.279 332.437 355.543 330.871C355.333 330.424 351.693 324.101 347.455 316.821L339.748 303.584V301.171V298.758L340.077 298.675C340.614 298.54 341.798 297.258 342.038 296.551C342.534 295.092 342.209 293.671 341.132 292.593C339.992 291.453 340.15 291.476 333.445 291.487C328.524 291.495 327.605 291.526 327.125 291.695ZM338.944 294.161C339.906 294.564 339.906 295.894 338.944 296.296C338.297 296.567 328.7 296.567 328.053 296.296C327.433 296.038 327.172 295.404 327.43 294.787C327.759 294 327.841 293.989 333.471 293.983C337.617 293.979 338.583 294.011 338.944 294.161ZM337.248 301.71V304.44L345.14 317.999C349.48 325.457 353.117 331.756 353.221 331.997C353.466 332.562 353.451 333.804 353.193 334.407C352.89 335.115 352.199 335.808 351.465 336.14L350.81 336.436H333.498C318.893 336.436 316.119 336.409 315.75 336.26C314.152 335.616 313.258 333.996 313.657 332.47C313.776 332.015 316.315 327.543 321.789 318.145L329.749 304.481V301.731V298.981H333.498H337.248V301.71ZM325.861 319.92C324.797 320.144 323.23 320.797 322.908 321.152C322.529 321.57 317.309 330.612 317.13 331.161C316.824 332.1 317.333 333.28 318.245 333.745C318.716 333.985 318.97 333.998 323.566 333.998H328.393L328.758 333.632C329.273 333.117 329.273 332.377 328.758 331.862L328.393 331.496H324.134C321.791 331.496 319.874 331.473 319.874 331.444C319.874 331.416 320.964 329.516 322.295 327.224L324.716 323.055L325.451 322.754C326.018 322.521 326.495 322.439 327.535 322.394C329.154 322.323 330.07 322.454 333.123 323.196C334.395 323.504 336.023 323.866 336.741 324C338.442 324.316 340.602 324.316 341.81 323.999C342.292 323.873 342.692 323.777 342.701 323.787C342.768 323.863 347.123 331.403 347.123 331.444C347.123 331.473 345.206 331.496 342.863 331.496H338.604L338.239 331.862C337.724 332.377 337.724 333.117 338.239 333.632L338.604 333.998H343.431C348.026 333.998 348.281 333.985 348.752 333.745C349.652 333.286 350.131 332.208 349.869 331.233C349.721 330.683 344.541 321.65 344.086 321.15C343.685 320.707 343.134 320.67 342.357 321.033C341.33 321.513 340.669 321.649 339.373 321.645C337.978 321.642 337.27 321.526 334.498 320.85C333.364 320.573 331.93 320.236 331.311 320.101C329.826 319.777 326.992 319.683 325.861 319.92ZM332.614 331.862C331.809 332.668 332.36 333.998 333.498 333.998C334.229 333.998 334.748 333.478 334.748 332.747C334.748 332.34 334.67 332.149 334.383 331.862C334.096 331.575 333.906 331.496 333.498 331.496C333.091 331.496 332.9 331.575 332.614 331.862Z" fill="#414141"/>
<path fill-rule="evenodd" clip-rule="evenodd" d="M228.561 68.1381C226.948 68.6722 225.726 69.7342 225.012 71.2208C224.575 72.1305 224.561 72.2022 224.561 73.597C224.561 74.9918 224.575 75.0634 225.012 75.9731C225.606 77.2094 226.513 78.117 227.748 78.7113C228.658 79.1489 228.728 79.1621 230.13 79.1621C231.55 79.1621 231.589 79.1545 232.537 78.6855C233.781 78.0706 234.594 77.2566 235.209 76.0126C235.678 75.0629 235.685 75.0259 235.685 73.597C235.685 72.168 235.678 72.131 235.209 71.1813C234.584 69.9167 233.736 69.0705 232.506 68.4859C231.642 68.0751 231.453 68.0335 230.311 68.0044C229.524 67.9843 228.875 68.0339 228.561 68.1381ZM231.435 70.838C233.345 71.6695 233.761 74.3813 232.2 75.8217C230.994 76.9336 229.252 76.9336 228.047 75.8217C226.831 74.7001 226.742 72.7966 227.848 71.5716C228.796 70.521 230.097 70.2552 231.435 70.838ZM215.753 74.1225C214.819 74.4815 213.873 75.4402 213.518 76.3882C212.72 78.5243 213.753 80.9444 215.789 81.7066C218.544 82.7379 221.374 80.8147 221.374 77.9115C221.374 75.0024 218.502 73.0666 215.753 74.1225ZM218.167 76.6654C218.56 76.9393 218.764 77.3319 218.771 77.8284C218.791 79.2576 217.248 79.9544 216.257 78.9635C215.644 78.3501 215.648 77.4688 216.267 76.8495C216.465 76.6521 216.752 76.4656 216.906 76.4353C217.285 76.3607 217.886 76.4703 218.167 76.6654ZM218.125 84.6953C217.34 84.972 216.231 86.1047 215.959 86.9069C215.691 87.6936 215.691 88.7644 215.959 89.5511C216.199 90.2581 217.383 91.5403 217.92 91.6751L218.249 91.7578V94.1886V96.6194L210.485 109.964C206.214 117.303 202.676 123.365 202.622 123.433C202.319 123.817 202 125.186 202 126.105C202 128.755 203.622 130.986 206.107 131.754C206.88 131.994 207.361 132 224.498 132C241.785 132 242.11 131.995 242.89 131.748C244.22 131.327 245.404 130.419 246.149 129.249C247.11 127.739 247.279 125.437 246.543 123.871C246.333 123.424 242.693 117.101 238.455 109.821L230.748 96.5839V94.1708V91.7578L231.077 91.6751C231.614 91.5403 232.798 90.2581 233.038 89.5511C233.534 88.0919 233.209 86.6707 232.132 85.5935C230.992 84.4528 231.15 84.4756 224.445 84.4871C219.524 84.4954 218.605 84.5258 218.125 84.6953ZM229.944 87.1615C230.906 87.5635 230.906 88.8944 229.944 89.2965C229.297 89.567 219.7 89.567 219.053 89.2965C218.433 89.0376 218.172 88.4044 218.43 87.7871C218.759 86.9996 218.841 86.9888 224.471 86.9833C228.617 86.9793 229.583 87.0107 229.944 87.1615ZM228.248 94.7102V97.4395L236.14 110.999C240.48 118.457 244.117 124.756 244.221 124.997C244.466 125.562 244.451 126.804 244.193 127.407C243.89 128.115 243.199 128.808 242.465 129.14L241.81 129.436H224.498C209.893 129.436 207.119 129.409 206.75 129.26C205.152 128.616 204.258 126.996 204.657 125.47C204.776 125.015 207.315 120.543 212.789 111.145L220.749 97.4811V94.7309V91.9808H224.498H228.248V94.7102ZM216.861 112.92C215.797 113.144 214.23 113.797 213.908 114.152C213.529 114.57 208.309 123.612 208.13 124.161C207.824 125.1 208.333 126.28 209.245 126.745C209.716 126.985 209.97 126.998 214.566 126.998H219.393L219.758 126.632C220.273 126.117 220.273 125.377 219.758 124.862L219.393 124.496H215.134C212.791 124.496 210.874 124.473 210.874 124.444C210.874 124.416 211.964 122.516 213.295 120.224L215.716 116.055L216.451 115.754C217.018 115.521 217.495 115.439 218.535 115.394C220.154 115.323 221.07 115.454 224.123 116.196C225.395 116.504 227.023 116.866 227.741 117C229.442 117.316 231.602 117.316 232.81 116.999C233.292 116.873 233.692 116.777 233.701 116.787C233.768 116.863 238.123 124.403 238.123 124.444C238.123 124.473 236.206 124.496 233.863 124.496H229.604L229.239 124.862C228.724 125.377 228.724 126.117 229.239 126.632L229.604 126.998H234.431C239.026 126.998 239.281 126.985 239.752 126.745C240.652 126.286 241.131 125.208 240.869 124.233C240.721 123.683 235.541 114.65 235.086 114.15C234.685 113.707 234.134 113.67 233.357 114.033C232.33 114.513 231.669 114.649 230.373 114.645C228.978 114.642 228.27 114.526 225.498 113.85C224.364 113.573 222.93 113.236 222.311 113.101C220.826 112.777 217.992 112.683 216.861 112.92ZM223.614 124.862C222.809 125.668 223.36 126.998 224.498 126.998C225.229 126.998 225.748 126.478 225.748 125.747C225.748 125.34 225.67 125.149 225.383 124.862C225.096 124.575 224.906 124.496 224.498 124.496C224.091 124.496 223.9 124.575 223.614 124.862Z" fill="#414141"/>
</svg>
