<svg xmlns="http://www.w3.org/2000/svg" viewBox="0 0 32 32">
  <rect width="32" height="32" fill="#000"/>
  <!-- Eye white (almond shape) -->
  <g fill="#fff">
    <!-- Top curve -->
    <rect x="11" y="5" width="10" height="1"/>
    <rect x="9" y="6" width="14" height="1"/>
    <rect x="7" y="7" width="18" height="1"/>
    <rect x="6" y="8" width="20" height="1"/>
    <rect x="5" y="9" width="22" height="1"/>
    <rect x="4" y="10" width="24" height="1"/>
    <rect x="3" y="11" width="26" height="1"/>
    <rect x="2" y="12" width="28" height="1"/>
    <rect x="1" y="13" width="30" height="1"/>
    <rect x="1" y="14" width="30" height="1"/>
    <rect x="1" y="15" width="30" height="1"/>
    <rect x="1" y="16" width="30" height="1"/>
    <rect x="1" y="17" width="30" height="1"/>
    <rect x="1" y="18" width="30" height="1"/>
    <rect x="2" y="19" width="28" height="1"/>
    <rect x="3" y="20" width="26" height="1"/>
    <rect x="4" y="21" width="24" height="1"/>
    <rect x="5" y="22" width="22" height="1"/>
    <rect x="6" y="23" width="20" height="1"/>
    <rect x="7" y="24" width="18" height="1"/>
    <rect x="9" y="25" width="14" height="1"/>
    <rect x="11" y="26" width="10" height="1"/>
  </g>
  <!-- Pupil (black circle) -->
  <g fill="#000">
    <rect x="13" y="11" width="6" height="1"/>
    <rect x="12" y="12" width="8" height="1"/>
    <rect x="11" y="13" width="10" height="1"/>
    <rect x="10" y="14" width="12" height="1"/>
    <rect x="10" y="15" width="12" height="1"/>
    <rect x="10" y="16" width="12" height="1"/>
    <rect x="10" y="17" width="12" height="1"/>
    <rect x="11" y="18" width="10" height="1"/>
    <rect x="12" y="19" width="8" height="1"/>
    <rect x="13" y="20" width="6" height="1"/>
  </g>
</svg>
