<svg width="311" height="299" viewBox="0 0 311 299" fill="none" xmlns="http://www.w3.org/2000/svg">
<path fill-rule="evenodd" clip-rule="evenodd" d="M229.497 0.986631C228.397 1.49163 205.897 6.63763 179.497 12.4216C153.097 18.2066 130.048 23.2746 128.277 23.6856L125.058 24.4326L139.04 36.9326C146.73 43.8076 154.59 50.8286 156.506 52.5356L159.99 55.6386L157.994 61.4426C156.896 64.6346 155.997 67.6256 155.997 68.0896C155.997 68.5526 164.435 68.9426 174.747 68.9546C195.796 68.9786 204.493 70.3626 218.497 75.9186C232.427 81.4456 249.413 92.2226 256.426 99.9856C258.475 102.255 260.282 103.958 260.44 103.772C260.598 103.586 261.509 101.042 262.464 98.1196C263.634 94.5366 264.9 92.5556 266.348 92.0376C270.123 90.6866 293.049 86.6516 293.633 87.2346C294.441 88.0426 288.185 107.704 286.993 108.101C286.445 108.284 284.926 111.904 283.617 116.145L281.238 123.857L284.736 125.012C287.511 125.928 288.402 125.896 289.042 124.861C290.417 122.635 293.094 110.826 292.617 109.084C292.369 108.176 293.815 102.483 295.831 96.4326L299.497 85.4326L304.997 84.2786C308.022 83.6446 310.703 83.0816 310.955 83.0286C311.207 82.9756 309.463 80.9446 307.078 78.5156C302.951 74.3096 302.797 73.9436 303.87 70.8666C306.635 62.9366 303.629 59.3296 294.951 60.1626L289.938 60.6446L268.781 38.5386C238.468 6.86563 231.775 -0.0763694 231.628 0.000630637C231.556 0.0376306 230.597 0.481631 229.497 0.986631ZM300.654 66.4326C300.825 66.9826 300.549 68.0896 300.042 68.8926C299.252 70.1426 298.822 70.0836 297.058 68.4876C295.924 67.4616 294.997 66.2126 294.997 65.7116C294.997 64.4896 300.258 65.1606 300.654 66.4326ZM90.997 76.5556C70.573 79.8916 45.488 92.2166 33.89 104.616C27.884 111.037 25.415 116.557 16.45 143.594C3.30901 183.224 0.00600482 197.723 4.82477e-06 215.789C-0.00699518 238.023 7.603 252.275 22.447 257.828L28.235 259.994L33.518 256.005C36.423 253.811 42.782 247.88 47.649 242.824C65.639 224.135 73.475 217.571 83.497 212.794L89.497 209.935H141.997H194.497L200.497 212.794C210.519 217.571 218.355 224.135 236.345 242.824C241.212 247.88 247.571 253.811 250.476 256.005L255.759 259.994L261.547 257.828C284.043 249.411 289.957 220.347 278.007 176.933C273.39 160.157 260.153 121.008 256.779 114.147C249.926 100.214 228.276 85.9156 203.124 78.7116C195.775 76.6066 193.637 76.5196 144.497 76.3366C116.447 76.2326 92.372 76.3316 90.997 76.5556ZM221.52 107.87C228.942 111.524 235.077 117.904 238.887 125.933C241.167 130.738 241.494 132.696 241.473 141.433C241.452 150.147 241.105 152.175 238.769 157.203C235.449 164.351 227.905 171.852 220.262 175.603C215.101 178.136 213.449 178.433 204.497 178.433C195.465 178.433 193.918 178.149 188.519 175.502C181.588 172.105 174.116 165.046 171.014 158.966C167.63 152.334 165.97 142.745 167.052 136.088C171.234 110.359 198.2 96.3886 221.52 107.87ZM95.387 107.802C106.66 113.356 113.9 123.138 116.137 135.838C118.101 146.987 113.735 160.155 105.325 168.446C86.673 186.834 55.373 181.032 44.157 157.108C38.948 145.996 41.37 127.999 49.511 117.325C53.036 112.705 57.941 109.152 64.727 106.306C69.638 104.246 71.841 103.927 79.523 104.159C87.445 104.4 89.386 104.845 95.387 107.802ZM75.997 110.642C72.688 111.859 70.997 114.319 70.997 117.914C70.997 127.742 84.743 128.894 86.611 119.223C87.13 116.537 86.735 115.517 84.191 112.973C81.267 110.049 79.206 109.463 75.997 110.642ZM193.236 128.183C185.851 135.47 179.401 142.475 178.903 143.748C177.605 147.066 179.424 149.933 182.827 149.933C185.05 149.933 188.347 147.149 199.792 135.606C213.709 121.569 215.52 118.856 212.797 116.133C209.681 113.017 206.816 114.782 193.236 128.183ZM209.476 145.902C201.788 153.636 195.361 160.801 195.194 161.824C194.838 164.004 197.445 166.933 199.741 166.933C200.622 166.933 207.81 160.521 215.714 152.683C228.534 139.973 230.055 138.109 229.792 135.433C229.544 132.906 229.02 132.386 226.476 132.137C223.778 131.872 221.965 133.34 209.476 145.902ZM49.452 136.388C46.111 139.728 46.311 143.401 50.037 147.127C52.581 149.671 53.601 150.066 56.287 149.547C60.425 148.748 62.997 145.595 62.997 141.322C62.997 134.297 54.601 131.238 49.452 136.388ZM96.07 136.568C90.864 143.186 97.339 152.105 105.035 148.917C113.146 145.558 110.789 133.933 101.997 133.933C99.024 133.933 97.668 134.535 96.07 136.568ZM73.632 159.006C71.599 160.604 70.997 161.96 70.997 164.933C70.997 173.209 81.779 176.123 85.534 168.861C87.636 164.796 87.369 163.152 84.074 159.856C80.623 156.406 77.283 156.134 73.632 159.006ZM157.362 185.006C159.109 186.38 159.997 188.04 159.997 189.933C159.997 191.826 159.109 193.486 157.362 194.86C154.998 196.72 153.368 196.933 141.497 196.933C129.626 196.933 127.996 196.72 125.632 194.86C123.885 193.486 122.997 191.826 122.997 189.933C122.997 188.04 123.885 186.38 125.632 185.006C127.996 183.146 129.626 182.933 141.497 182.933C153.368 182.933 154.998 183.146 157.362 185.006ZM56.997 266.117C56.997 286.545 58.094 290.136 65.837 295.046C74.948 300.824 86.801 298.265 93.038 289.172C95.396 285.735 95.51 284.835 95.809 267.26L96.121 248.933H91.059H85.997V265.71C85.997 284.19 85.508 285.974 79.784 288.38C75.727 290.086 72.434 289.241 69.486 285.738C67.049 282.841 66.997 282.429 66.997 265.856V248.933H61.997H56.997V266.117ZM105.997 253.328V257.722L117.747 258.078C128.123 258.391 129.879 258.705 132.762 260.762C142.026 267.369 140.822 281.383 130.592 286.029C127.467 287.449 124.07 287.894 116.247 287.911L105.997 287.933V292.433V296.933L118.247 296.923C128.991 296.915 131.117 296.625 135.538 294.566C144.307 290.482 149.197 282.738 149.197 272.933C149.197 263.128 144.307 255.384 135.538 251.3C131.117 249.241 128.991 248.951 118.247 248.943L105.997 248.933V253.328ZM155.19 253.183L155.497 257.433L172.747 257.707L189.997 257.98V253.457V248.933H172.44H154.882L155.19 253.183ZM195.997 272.933V296.933H211.497H226.997V292.433V287.933H216.497H205.997V268.433V248.933H200.997H195.997V272.933ZM155.664 268.6C155.297 268.966 154.997 270.991 154.997 273.1V276.933H172.497H189.997V272.433V267.933H173.164C163.905 267.933 156.03 268.233 155.664 268.6ZM155.664 288.6C155.297 288.966 154.997 290.991 154.997 293.1V296.933H172.497H189.997V292.433V287.933H173.164C163.905 287.933 156.03 288.233 155.664 288.6Z" fill="white"/>
</svg>
