<svg width="171" height="51" viewBox="0 0 171 51" fill="none" xmlns="http://www.w3.org/2000/svg">
<rect width="171" height="51" fill="#050000"/>
<path d="M9.83707 47.0457C2.09407 42.1357 0.99707 38.5446 0.99707 18.1166V0.932678H5.99707H10.9971V17.8557C10.9971 34.4286 11.0491 34.8406 13.4861 37.7376C16.4341 41.2406 19.7271 42.0856 23.7841 40.3796C29.5081 37.9736 29.9971 36.1897 29.9971 17.7097V0.932678H35.0591H40.1211L39.8091 19.2596C39.5101 36.8346 39.3961 37.7347 37.0381 41.1717C30.8011 50.2647 18.9481 52.8237 9.83707 47.0457Z" fill="white"/>
<path d="M49.9971 9.72165V5.32767V0.932678L62.2471 0.942688C72.9911 0.950688 75.1171 1.24068 79.5381 3.29968C88.3071 7.38368 93.1971 15.1276 93.1971 24.9326C93.1971 34.7376 88.3071 42.4817 79.5381 46.5657C75.1171 48.6247 72.9911 48.9147 62.2471 48.9227L49.9971 48.9327V44.4326V39.9326L60.2471 39.9106C68.0701 39.8936 71.4671 39.4487 74.5921 38.0287C84.8221 33.3827 86.0261 19.3687 76.7621 12.7617C73.8791 10.7047 72.1231 10.3906 61.7471 10.0776L49.9971 9.72165Z" fill="white"/>
<path d="M99.4971 9.43265L99.1901 5.18268L98.8821 0.932678H116.44H133.997V5.45667V9.97964L116.747 9.70663L99.4971 9.43265Z" fill="white"/>
<path d="M139.997 48.9327V24.9326V0.932678H144.997H149.997V20.4326V39.9326H160.497H170.997V44.4326V48.9327H155.497H139.997Z" fill="white"/>
<path d="M98.9971 25.0996C98.9971 22.9906 99.2971 20.9656 99.6641 20.5996C100.03 20.2326 107.905 19.9326 117.164 19.9326H133.997V24.4326V28.9326H116.497H98.9971V25.0996Z" fill="white"/>
<path d="M98.9971 45.0997C98.9971 42.9907 99.2971 40.9656 99.6641 40.5996C100.03 40.2326 107.905 39.9326 117.164 39.9326H133.997V44.4326V48.9327H116.497H98.9971V45.0997Z" fill="white"/>
</svg>
